M48
; DRILL file {KiCad (5.1.6)-1} date 06/28/20 00:18:09
; FORMAT={-:-/ absolute / inch / decimal}
; #@! TF.CreationDate,2020-06-28T00:18:09-05:00
; #@! TF.GenerationSoftware,Kicad,Pcbnew,(5.1.6)-1
FMAT,2
INCH
T1C0.0157
T2C0.0197
T3C0.0394
T4C0.1063
%
G90
G05
T1
X3.9286Y-3.9986
X3.9665Y-4.6969
X3.9711Y-3.7533
X3.9724Y-3.5965
X4.0079Y-4.7933
X4.0089Y-4.4819
X4.0197Y-4.622
X4.1311Y-3.9795
X4.2736Y-4.7179
X4.2933Y-4.5472
X4.2972Y-3.5551
X4.2972Y-3.8996
X4.3457Y-4.6894
T2
X3.7333Y-2.6161
X3.7566Y-2.5598
X3.7566Y-2.6725
X3.813Y-2.5364
X3.813Y-2.6959
X3.8694Y-2.5598
X3.8694Y-2.6725
X3.8927Y-2.6161
X3.7333Y-4.898
X3.7566Y-4.8417
X3.7566Y-4.9544
X3.813Y-4.8183
X3.813Y-4.9778
X3.8694Y-4.8417
X3.8694Y-4.9544
X3.8927Y-4.898
X4.3711Y-4.898
X4.3944Y-4.8417
X4.3944Y-4.9544
X4.4508Y-4.8183
X4.4508Y-4.9778
X4.5072Y-4.8417
X4.5072Y-4.9544
X4.5305Y-4.898
X4.0522Y-2.6161
X4.0755Y-2.5598
X4.0755Y-2.6725
X4.1319Y-2.5364
X4.1319Y-2.6959
X4.1883Y-2.5598
X4.1883Y-2.6725
X4.2116Y-2.6161
X4.3711Y-2.6161
X4.3944Y-2.5598
X4.3944Y-2.6725
X4.4508Y-2.5364
X4.4508Y-2.6959
X4.5072Y-2.5598
X4.5072Y-2.6725
X4.5305Y-2.6161
X4.0522Y-4.898
X4.0755Y-4.8417
X4.0755Y-4.9544
X4.1319Y-4.8183
X4.1319Y-4.9778
X4.1883Y-4.8417
X4.1883Y-4.9544
X4.2116Y-4.898
T3
X4.0811Y-2.8071
X4.0811Y-2.9071
X4.0811Y-3.0071
X4.0811Y-3.1071
X4.0811Y-3.2071
X4.0811Y-3.3071
X4.0811Y-3.4071
X4.0811Y-3.5071
X4.0811Y-3.6071
X4.0811Y-3.7071
X4.0811Y-3.8071
X4.0811Y-3.9071
X4.0811Y-4.0071
X4.0811Y-4.1071
X4.0811Y-4.2071
X4.0811Y-4.3071
X4.0811Y-4.4071
X4.0811Y-4.5071
X4.0811Y-4.6071
X4.0811Y-4.7071
X4.1811Y-2.8071
X4.1811Y-2.9071
X4.1811Y-3.0071
X4.1811Y-3.1071
X4.1811Y-3.2071
X4.1811Y-3.3071
X4.1811Y-3.4071
X4.1811Y-3.5071
X4.1811Y-3.6071
X4.1811Y-3.7071
X4.1811Y-3.8071
X4.1811Y-3.9071
X4.1811Y-4.0071
X4.1811Y-4.1071
X4.1811Y-4.2071
X4.1811Y-4.3071
X4.1811Y-4.4071
X4.1811Y-4.5071
X4.1811Y-4.6071
X4.1811Y-4.7071
X4.4Y-2.8071
X4.4Y-2.9071
X4.4Y-3.0071
X4.4Y-3.1071
X4.4Y-3.2071
X4.4Y-3.3071
X4.4Y-3.4071
X4.4Y-3.5071
X4.4Y-3.6071
X4.4Y-3.7071
X4.4Y-3.8071
X4.4Y-3.9071
X4.4Y-4.0071
X4.4Y-4.1071
X4.4Y-4.2071
X4.4Y-4.3071
X4.4Y-4.4071
X4.4Y-4.5071
X4.4Y-4.6071
X4.4Y-4.7071
X4.5Y-2.8071
X4.5Y-2.9071
X4.5Y-3.0071
X4.5Y-3.1071
X4.5Y-3.2071
X4.5Y-3.3071
X4.5Y-3.4071
X4.5Y-3.5071
X4.5Y-3.6071
X4.5Y-3.7071
X4.5Y-3.8071
X4.5Y-3.9071
X4.5Y-4.0071
X4.5Y-4.1071
X4.5Y-4.2071
X4.5Y-4.3071
X4.5Y-4.4071
X4.5Y-4.5071
X4.5Y-4.6071
X4.5Y-4.7071
X3.7622Y-2.8071
X3.7622Y-2.9071
X3.7622Y-3.0071
X3.7622Y-3.1071
X3.7622Y-3.2071
X3.7622Y-3.3071
X3.7622Y-3.4071
X3.7622Y-3.5071
X3.7622Y-3.6071
X3.7622Y-3.7071
X3.7622Y-3.8071
X3.7622Y-3.9071
X3.7622Y-4.0071
X3.7622Y-4.1071
X3.7622Y-4.2071
X3.7622Y-4.3071
X3.7622Y-4.4071
X3.7622Y-4.5071
X3.7622Y-4.6071
X3.7622Y-4.7071
X3.8622Y-2.8071
X3.8622Y-2.9071
X3.8622Y-3.0071
X3.8622Y-3.1071
X3.8622Y-3.2071
X3.8622Y-3.3071
X3.8622Y-3.4071
X3.8622Y-3.5071
X3.8622Y-3.6071
X3.8622Y-3.7071
X3.8622Y-3.8071
X3.8622Y-3.9071
X3.8622Y-4.0071
X3.8622Y-4.1071
X3.8622Y-4.2071
X3.8622Y-4.3071
X3.8622Y-4.4071
X3.8622Y-4.5071
X3.8622Y-4.6071
X3.8622Y-4.7071
T4
X3.813Y-2.6161
X3.813Y-4.898
X4.4508Y-4.898
X4.1319Y-2.6161
X4.4508Y-2.6161
X4.1319Y-4.898
T0
M30
