%TF.GenerationSoftware,KiCad,Pcbnew,(5.1.6)-1*%
%TF.CreationDate,2020-06-28T00:18:02-05:00*%
%TF.ProjectId,rpi_adapter,7270695f-6164-4617-9074-65722e6b6963,rev?*%
%TF.SameCoordinates,Original*%
%TF.FileFunction,Copper,L2,Bot*%
%TF.FilePolarity,Positive*%
%FSLAX46Y46*%
G04 Gerber Fmt 4.6, Leading zero omitted, Abs format (unit mm)*
G04 Created by KiCad (PCBNEW (5.1.6)-1) date 2020-06-28 00:18:02*
%MOMM*%
%LPD*%
G01*
G04 APERTURE LIST*
%TA.AperFunction,ComponentPad*%
%ADD10C,0.800000*%
%TD*%
%TA.AperFunction,ComponentPad*%
%ADD11C,5.400000*%
%TD*%
%TA.AperFunction,ComponentPad*%
%ADD12O,1.700000X1.700000*%
%TD*%
%TA.AperFunction,ComponentPad*%
%ADD13R,1.700000X1.700000*%
%TD*%
%TA.AperFunction,ViaPad*%
%ADD14C,0.800000*%
%TD*%
%TA.AperFunction,Conductor*%
%ADD15C,0.250000*%
%TD*%
%TA.AperFunction,Conductor*%
%ADD16C,0.254000*%
%TD*%
G04 APERTURE END LIST*
D10*
%TO.P,H6,1*%
%TO.N,GND*%
X114481891Y-122978109D03*
X113050000Y-122385000D03*
X111618109Y-122978109D03*
X111025000Y-124410000D03*
X111618109Y-125841891D03*
X113050000Y-126435000D03*
X114481891Y-125841891D03*
X115075000Y-124410000D03*
D11*
X113050000Y-124410000D03*
%TD*%
D10*
%TO.P,H5,1*%
%TO.N,GND*%
X114481891Y-65018109D03*
X113050000Y-64425000D03*
X111618109Y-65018109D03*
X111025000Y-66450000D03*
X111618109Y-67881891D03*
X113050000Y-68475000D03*
X114481891Y-67881891D03*
X115075000Y-66450000D03*
D11*
X113050000Y-66450000D03*
%TD*%
D12*
%TO.P,J3,40*%
%TO.N,PI-ACK*%
X114300000Y-119560000D03*
%TO.P,J3,39*%
%TO.N,GND*%
X111760000Y-119560000D03*
%TO.P,J3,38*%
%TO.N,PI-RST*%
X114300000Y-117020000D03*
%TO.P,J3,37*%
%TO.N,PI-BSY*%
X111760000Y-117020000D03*
%TO.P,J3,36*%
%TO.N,PI-D6*%
X114300000Y-114480000D03*
%TO.P,J3,35*%
%TO.N,PI-ATN*%
X111760000Y-114480000D03*
%TO.P,J3,34*%
%TO.N,GND*%
X114300000Y-111940000D03*
%TO.P,J3,33*%
%TO.N,PI-D3*%
X111760000Y-111940000D03*
%TO.P,J3,32*%
%TO.N,PI-D2*%
X114300000Y-109400000D03*
%TO.P,J3,31*%
%TO.N,GPIO6*%
X111760000Y-109400000D03*
%TO.P,J3,30*%
%TO.N,GND*%
X114300000Y-106860000D03*
%TO.P,J3,29*%
%TO.N,DBG_LED*%
X111760000Y-106860000D03*
%TO.P,J3,28*%
%TO.N,GPIO1*%
X114300000Y-104320000D03*
%TO.P,J3,27*%
%TO.N,GPIO0*%
X111760000Y-104320000D03*
%TO.P,J3,26*%
%TO.N,GPIO7*%
X114300000Y-101780000D03*
%TO.P,J3,25*%
%TO.N,GND*%
X111760000Y-101780000D03*
%TO.P,J3,24*%
%TO.N,GPIO8*%
X114300000Y-99240000D03*
%TO.P,J3,23*%
%TO.N,PI-D1*%
X111760000Y-99240000D03*
%TO.P,J3,22*%
%TO.N,PI-I_O*%
X114300000Y-96700000D03*
%TO.P,J3,21*%
%TO.N,GPIO9*%
X111760000Y-96700000D03*
%TO.P,J3,20*%
%TO.N,GND*%
X114300000Y-94160000D03*
%TO.P,J3,19*%
%TO.N,PI-D0*%
X111760000Y-94160000D03*
%TO.P,J3,18*%
%TO.N,PI-C_D*%
X114300000Y-91620000D03*
%TO.P,J3,17*%
%TO.N,+3V3*%
X111760000Y-91620000D03*
%TO.P,J3,16*%
%TO.N,PI-MSG*%
X114300000Y-89080000D03*
%TO.P,J3,15*%
%TO.N,PI-REQ*%
X111760000Y-89080000D03*
%TO.P,J3,14*%
%TO.N,GND*%
X114300000Y-86540000D03*
%TO.P,J3,13*%
%TO.N,PI-SEL*%
X111760000Y-86540000D03*
%TO.P,J3,12*%
%TO.N,PI-DP*%
X114300000Y-84000000D03*
%TO.P,J3,11*%
%TO.N,PI-D7*%
X111760000Y-84000000D03*
%TO.P,J3,10*%
%TO.N,PI-D5*%
X114300000Y-81460000D03*
%TO.P,J3,9*%
%TO.N,GND*%
X111760000Y-81460000D03*
%TO.P,J3,8*%
%TO.N,PI-D4*%
X114300000Y-78920000D03*
%TO.P,J3,7*%
%TO.N,ACT*%
X111760000Y-78920000D03*
%TO.P,J3,6*%
%TO.N,GND*%
X114300000Y-76380000D03*
%TO.P,J3,5*%
%TO.N,PI-SCL*%
X111760000Y-76380000D03*
%TO.P,J3,4*%
%TO.N,+5V*%
X114300000Y-73840000D03*
%TO.P,J3,3*%
%TO.N,PI-SDA*%
X111760000Y-73840000D03*
%TO.P,J3,2*%
%TO.N,+5V*%
X114300000Y-71300000D03*
D13*
%TO.P,J3,1*%
%TO.N,+3V3*%
X111760000Y-71300000D03*
%TD*%
D10*
%TO.P,H4,1*%
%TO.N,GND*%
X106381891Y-122978109D03*
X104950000Y-122385000D03*
X103518109Y-122978109D03*
X102925000Y-124410000D03*
X103518109Y-125841891D03*
X104950000Y-126435000D03*
X106381891Y-125841891D03*
X106975000Y-124410000D03*
D11*
X104950000Y-124410000D03*
%TD*%
D10*
%TO.P,H3,1*%
%TO.N,GND*%
X106381891Y-65018109D03*
X104950000Y-64425000D03*
X103518109Y-65018109D03*
X102925000Y-66450000D03*
X103518109Y-67881891D03*
X104950000Y-68475000D03*
X106381891Y-67881891D03*
X106975000Y-66450000D03*
D11*
X104950000Y-66450000D03*
%TD*%
D10*
%TO.P,H2,1*%
%TO.N,GND*%
X98281891Y-122978109D03*
X96850000Y-122385000D03*
X95418109Y-122978109D03*
X94825000Y-124410000D03*
X95418109Y-125841891D03*
X96850000Y-126435000D03*
X98281891Y-125841891D03*
X98875000Y-124410000D03*
D11*
X96850000Y-124410000D03*
%TD*%
D10*
%TO.P,H1,1*%
%TO.N,GND*%
X98281891Y-65018109D03*
X96850000Y-64425000D03*
X95418109Y-65018109D03*
X94825000Y-66450000D03*
X95418109Y-67881891D03*
X96850000Y-68475000D03*
X98281891Y-67881891D03*
X98875000Y-66450000D03*
D11*
X96850000Y-66450000D03*
%TD*%
D13*
%TO.P,J2,1*%
%TO.N,+3V3*%
X103660000Y-71300000D03*
D12*
%TO.P,J2,2*%
%TO.N,+5V*%
X106200000Y-71300000D03*
%TO.P,J2,3*%
%TO.N,PI-SDA*%
X103660000Y-73840000D03*
%TO.P,J2,4*%
%TO.N,+5V*%
X106200000Y-73840000D03*
%TO.P,J2,5*%
%TO.N,PI-SCL*%
X103660000Y-76380000D03*
%TO.P,J2,6*%
%TO.N,GND*%
X106200000Y-76380000D03*
%TO.P,J2,7*%
%TO.N,ACT*%
X103660000Y-78920000D03*
%TO.P,J2,8*%
%TO.N,PI-D4*%
X106200000Y-78920000D03*
%TO.P,J2,9*%
%TO.N,GND*%
X103660000Y-81460000D03*
%TO.P,J2,10*%
%TO.N,PI-D5*%
X106200000Y-81460000D03*
%TO.P,J2,11*%
%TO.N,PI-D7*%
X103660000Y-84000000D03*
%TO.P,J2,12*%
%TO.N,PI-DP*%
X106200000Y-84000000D03*
%TO.P,J2,13*%
%TO.N,PI-ATN*%
X103660000Y-86540000D03*
%TO.P,J2,14*%
%TO.N,GND*%
X106200000Y-86540000D03*
%TO.P,J2,15*%
%TO.N,PI-MSG*%
X103660000Y-89080000D03*
%TO.P,J2,16*%
%TO.N,PI-REQ*%
X106200000Y-89080000D03*
%TO.P,J2,17*%
%TO.N,+3V3*%
X103660000Y-91620000D03*
%TO.P,J2,18*%
%TO.N,PI-C_D*%
X106200000Y-91620000D03*
%TO.P,J2,19*%
%TO.N,PI-D0*%
X103660000Y-94160000D03*
%TO.P,J2,20*%
%TO.N,GND*%
X106200000Y-94160000D03*
%TO.P,J2,21*%
%TO.N,GPIO9*%
X103660000Y-96700000D03*
%TO.P,J2,22*%
%TO.N,PI-BSY*%
X106200000Y-96700000D03*
%TO.P,J2,23*%
%TO.N,PI-D1*%
X103660000Y-99240000D03*
%TO.P,J2,24*%
%TO.N,GPIO8*%
X106200000Y-99240000D03*
%TO.P,J2,25*%
%TO.N,GND*%
X103660000Y-101780000D03*
%TO.P,J2,26*%
%TO.N,GPIO7*%
X106200000Y-101780000D03*
%TO.P,J2,27*%
%TO.N,GPIO0*%
X103660000Y-104320000D03*
%TO.P,J2,28*%
%TO.N,GPIO1*%
X106200000Y-104320000D03*
%TO.P,J2,29*%
%TO.N,DBG_LED*%
X103660000Y-106860000D03*
%TO.P,J2,30*%
%TO.N,GND*%
X106200000Y-106860000D03*
%TO.P,J2,31*%
%TO.N,GPIO6*%
X103660000Y-109400000D03*
%TO.P,J2,32*%
%TO.N,PI-D2*%
X106200000Y-109400000D03*
%TO.P,J2,33*%
%TO.N,PI-D3*%
X103660000Y-111940000D03*
%TO.P,J2,34*%
%TO.N,GND*%
X106200000Y-111940000D03*
%TO.P,J2,35*%
%TO.N,PI-SEL*%
X103660000Y-114480000D03*
%TO.P,J2,36*%
%TO.N,PI-D6*%
X106200000Y-114480000D03*
%TO.P,J2,37*%
%TO.N,PI-I_O*%
X103660000Y-117020000D03*
%TO.P,J2,38*%
%TO.N,PI-ACK*%
X106200000Y-117020000D03*
%TO.P,J2,39*%
%TO.N,GND*%
X103660000Y-119560000D03*
%TO.P,J2,40*%
%TO.N,PI-RST*%
X106200000Y-119560000D03*
%TD*%
%TO.P,J1,40*%
%TO.N,PI-ACK*%
X98100000Y-119560000D03*
%TO.P,J1,39*%
%TO.N,GND*%
X95560000Y-119560000D03*
%TO.P,J1,38*%
%TO.N,PI-RST*%
X98100000Y-117020000D03*
%TO.P,J1,37*%
%TO.N,PI-BSY*%
X95560000Y-117020000D03*
%TO.P,J1,36*%
%TO.N,PI-D6*%
X98100000Y-114480000D03*
%TO.P,J1,35*%
%TO.N,PI-ATN*%
X95560000Y-114480000D03*
%TO.P,J1,34*%
%TO.N,GND*%
X98100000Y-111940000D03*
%TO.P,J1,33*%
%TO.N,PI-D3*%
X95560000Y-111940000D03*
%TO.P,J1,32*%
%TO.N,PI-D2*%
X98100000Y-109400000D03*
%TO.P,J1,31*%
%TO.N,GPIO6*%
X95560000Y-109400000D03*
%TO.P,J1,30*%
%TO.N,GND*%
X98100000Y-106860000D03*
%TO.P,J1,29*%
%TO.N,DBG_LED*%
X95560000Y-106860000D03*
%TO.P,J1,28*%
%TO.N,GPIO1*%
X98100000Y-104320000D03*
%TO.P,J1,27*%
%TO.N,GPIO0*%
X95560000Y-104320000D03*
%TO.P,J1,26*%
%TO.N,GPIO7*%
X98100000Y-101780000D03*
%TO.P,J1,25*%
%TO.N,GND*%
X95560000Y-101780000D03*
%TO.P,J1,24*%
%TO.N,GPIO8*%
X98100000Y-99240000D03*
%TO.P,J1,23*%
%TO.N,PI-D1*%
X95560000Y-99240000D03*
%TO.P,J1,22*%
%TO.N,PI-I_O*%
X98100000Y-96700000D03*
%TO.P,J1,21*%
%TO.N,GPIO9*%
X95560000Y-96700000D03*
%TO.P,J1,20*%
%TO.N,GND*%
X98100000Y-94160000D03*
%TO.P,J1,19*%
%TO.N,PI-D0*%
X95560000Y-94160000D03*
%TO.P,J1,18*%
%TO.N,PI-C_D*%
X98100000Y-91620000D03*
%TO.P,J1,17*%
%TO.N,+3V3*%
X95560000Y-91620000D03*
%TO.P,J1,16*%
%TO.N,PI-MSG*%
X98100000Y-89080000D03*
%TO.P,J1,15*%
%TO.N,PI-REQ*%
X95560000Y-89080000D03*
%TO.P,J1,14*%
%TO.N,GND*%
X98100000Y-86540000D03*
%TO.P,J1,13*%
%TO.N,PI-SEL*%
X95560000Y-86540000D03*
%TO.P,J1,12*%
%TO.N,PI-DP*%
X98100000Y-84000000D03*
%TO.P,J1,11*%
%TO.N,PI-D7*%
X95560000Y-84000000D03*
%TO.P,J1,10*%
%TO.N,PI-D5*%
X98100000Y-81460000D03*
%TO.P,J1,9*%
%TO.N,GND*%
X95560000Y-81460000D03*
%TO.P,J1,8*%
%TO.N,PI-D4*%
X98100000Y-78920000D03*
%TO.P,J1,7*%
%TO.N,ACT*%
X95560000Y-78920000D03*
%TO.P,J1,6*%
%TO.N,GND*%
X98100000Y-76380000D03*
%TO.P,J1,5*%
%TO.N,PI-SCL*%
X95560000Y-76380000D03*
%TO.P,J1,4*%
%TO.N,+5V*%
X98100000Y-73840000D03*
%TO.P,J1,3*%
%TO.N,PI-SDA*%
X95560000Y-73840000D03*
%TO.P,J1,2*%
%TO.N,+5V*%
X98100000Y-71300000D03*
D13*
%TO.P,J1,1*%
%TO.N,+3V3*%
X95560000Y-71300000D03*
%TD*%
D14*
%TO.N,GND*%
X100900000Y-91350000D03*
X99786795Y-101563205D03*
X100750000Y-119300000D03*
X100864999Y-95335001D03*
X109050000Y-115500000D03*
X108550000Y-119834999D03*
X109150000Y-90300000D03*
X109150000Y-99050000D03*
%TO.N,PI-RST*%
X101800000Y-121750000D03*
%TO.N,PI-BSY*%
X102100000Y-117400000D03*
X110381595Y-119109999D03*
%TO.N,PI-ATN*%
X101825000Y-113840001D03*
%TO.N,GPIO8*%
X104929999Y-101080283D03*
%TD*%
D15*
%TO.N,GND*%
X105024999Y-95335001D02*
X106200000Y-94160000D01*
X100864999Y-95335001D02*
X105024999Y-95335001D01*
X105024999Y-91224999D02*
X104244999Y-90444999D01*
X104244999Y-90444999D02*
X101805001Y-90444999D01*
X105024999Y-92984999D02*
X105024999Y-91224999D01*
X101805001Y-90444999D02*
X100900000Y-91350000D01*
X106200000Y-94160000D02*
X105024999Y-92984999D01*
X100900000Y-89340000D02*
X98100000Y-86540000D01*
X100900000Y-91350000D02*
X100900000Y-89340000D01*
X113124999Y-77555001D02*
X114300000Y-76380000D01*
X107375001Y-77555001D02*
X113124999Y-77555001D01*
X106200000Y-76380000D02*
X107375001Y-77555001D01*
X108103590Y-81460000D02*
X111760000Y-81460000D01*
X104835001Y-80284999D02*
X106928589Y-80284999D01*
X106928589Y-80284999D02*
X108103590Y-81460000D01*
X103660000Y-81460000D02*
X104835001Y-80284999D01*
%TO.N,+3V3*%
X102295001Y-92984999D02*
X103660000Y-91620000D01*
X96924999Y-92984999D02*
X102295001Y-92984999D01*
X95560000Y-91620000D02*
X96924999Y-92984999D01*
X110584999Y-70124999D02*
X111760000Y-71300000D01*
X104835001Y-70124999D02*
X110584999Y-70124999D01*
X103660000Y-71300000D02*
X104835001Y-70124999D01*
%TO.N,+5V*%
X98100000Y-73840000D02*
X98100000Y-71300000D01*
X113124999Y-72475001D02*
X114300000Y-71300000D01*
X107375001Y-72475001D02*
X113124999Y-72475001D01*
X106200000Y-71300000D02*
X107375001Y-72475001D01*
X114300000Y-71300000D02*
X114300000Y-73840000D01*
X113124999Y-75015001D02*
X107375001Y-75015001D01*
X107375001Y-75015001D02*
X106200000Y-73840000D01*
X114300000Y-73840000D02*
X113124999Y-75015001D01*
%TO.N,PI-RST*%
X112324001Y-120735001D02*
X107375001Y-120735001D01*
X112935001Y-120124001D02*
X112324001Y-120735001D01*
X112935001Y-118384999D02*
X112935001Y-120124001D01*
X107375001Y-120735001D02*
X106200000Y-119560000D01*
X114300000Y-117020000D02*
X112935001Y-118384999D01*
X104574989Y-121185011D02*
X106200000Y-119560000D01*
X102364989Y-121185011D02*
X104574989Y-121185011D01*
X101800000Y-121750000D02*
X102364989Y-121185011D01*
%TO.N,PI-BSY*%
X105024999Y-97875001D02*
X106200000Y-96700000D01*
X101100000Y-100060998D02*
X103285997Y-97875001D01*
X103285997Y-97875001D02*
X105024999Y-97875001D01*
X101100000Y-116400000D02*
X101100000Y-100060998D01*
X102100000Y-117400000D02*
X101100000Y-116400000D01*
X110381595Y-118398405D02*
X111760000Y-117020000D01*
X110381595Y-119109999D02*
X110381595Y-118398405D01*
%TO.N,PI-ATN*%
X106764001Y-97875001D02*
X107375001Y-97264001D01*
X105661409Y-97875001D02*
X106764001Y-97875001D01*
X104835001Y-98701409D02*
X105661409Y-97875001D01*
X104835001Y-99804001D02*
X104835001Y-98701409D01*
X104224001Y-100415001D02*
X104835001Y-99804001D01*
X101825000Y-101686000D02*
X103095999Y-100415001D01*
X103095999Y-100415001D02*
X104224001Y-100415001D01*
X101825000Y-113840001D02*
X101825000Y-101686000D01*
X107375001Y-91055999D02*
X107375001Y-97264001D01*
X106764001Y-90444999D02*
X107375001Y-91055999D01*
X105635999Y-90444999D02*
X106764001Y-90444999D01*
X105024999Y-89833999D02*
X105635999Y-90444999D01*
X105024999Y-87904999D02*
X105024999Y-89833999D01*
X103660000Y-86540000D02*
X105024999Y-87904999D01*
X110584999Y-113304999D02*
X111760000Y-114480000D01*
X102360002Y-113304999D02*
X110584999Y-113304999D01*
X101825000Y-113840001D02*
X102360002Y-113304999D01*
%TO.N,GPIO8*%
X112935001Y-100604999D02*
X114300000Y-99240000D01*
X105405283Y-100604999D02*
X112935001Y-100604999D01*
X104929999Y-101080283D02*
X105405283Y-100604999D01*
X105405283Y-100034717D02*
X106200000Y-99240000D01*
X105405283Y-100604999D02*
X105405283Y-100034717D01*
%TO.N,PI-I_O*%
X98799982Y-96700000D02*
X98100000Y-96700000D01*
X103660000Y-117020000D02*
X102554999Y-118125001D01*
X100649991Y-98550009D02*
X98799982Y-96700000D01*
X102554999Y-118125001D02*
X101751999Y-118125001D01*
X101751999Y-118125001D02*
X100649991Y-117022993D01*
X100649991Y-117022993D02*
X100649991Y-98550009D01*
%TO.N,PI-SEL*%
X94384999Y-87715001D02*
X95560000Y-86540000D01*
X94384999Y-120124001D02*
X94384999Y-87715001D01*
X104224001Y-120735001D02*
X94995999Y-120735001D01*
X104835001Y-120124001D02*
X104224001Y-120735001D01*
X104835001Y-118995999D02*
X104835001Y-120124001D01*
X104300000Y-118119002D02*
X104300000Y-118460998D01*
X104835001Y-117584001D02*
X104300000Y-118119002D01*
X104300000Y-118460998D02*
X104835001Y-118995999D01*
X104835001Y-116455999D02*
X104835001Y-117584001D01*
X94995999Y-120735001D02*
X94384999Y-120124001D01*
X103660000Y-115280998D02*
X104835001Y-116455999D01*
X103660000Y-114480000D02*
X103660000Y-115280998D01*
X110395001Y-85175001D02*
X111760000Y-86540000D01*
X96924999Y-85175001D02*
X110395001Y-85175001D01*
X95560000Y-86540000D02*
X96924999Y-85175001D01*
%TO.N,PI-DP*%
X111195999Y-85175001D02*
X113124999Y-85175001D01*
X113124999Y-85175001D02*
X114300000Y-84000000D01*
X106764001Y-84564001D02*
X110584999Y-84564001D01*
X110584999Y-84564001D02*
X111195999Y-85175001D01*
X106200000Y-84000000D02*
X106764001Y-84564001D01*
%TO.N,PI-D7*%
X108103590Y-84000000D02*
X111760000Y-84000000D01*
X106928589Y-82824999D02*
X108103590Y-84000000D01*
X104835001Y-82824999D02*
X106928589Y-82824999D01*
X103660000Y-84000000D02*
X104835001Y-82824999D01*
%TO.N,PI-D5*%
X113124999Y-82635001D02*
X114300000Y-81460000D01*
X107375001Y-82635001D02*
X113124999Y-82635001D01*
X106200000Y-81460000D02*
X107375001Y-82635001D01*
%TO.N,PI-D4*%
X112935001Y-80284999D02*
X114300000Y-78920000D01*
X107564999Y-80284999D02*
X112935001Y-80284999D01*
X106200000Y-78920000D02*
X107564999Y-80284999D01*
%TO.N,ACT*%
X108103590Y-78920000D02*
X111760000Y-78920000D01*
X106928589Y-77744999D02*
X108103590Y-78920000D01*
X104835001Y-77744999D02*
X106928589Y-77744999D01*
X103660000Y-78920000D02*
X104835001Y-77744999D01*
%TO.N,PI-SCL*%
X106928589Y-75204999D02*
X108103590Y-76380000D01*
X104835001Y-75204999D02*
X106928589Y-75204999D01*
X108103590Y-76380000D02*
X111760000Y-76380000D01*
X103660000Y-76380000D02*
X104835001Y-75204999D01*
%TO.N,PI-SDA*%
X108103590Y-73840000D02*
X111760000Y-73840000D01*
X106928589Y-72664999D02*
X108103590Y-73840000D01*
X104835001Y-72664999D02*
X106928589Y-72664999D01*
X103660000Y-73840000D02*
X104835001Y-72664999D01*
%TD*%
D16*
%TO.N,GND*%
G36*
X103092008Y-63661096D02*
G01*
X103084411Y-63666172D01*
X102784231Y-64104626D01*
X104950000Y-66270395D01*
X107115769Y-64104626D01*
X106815589Y-63666172D01*
X106710842Y-63610000D01*
X111287916Y-63610000D01*
X111192008Y-63661096D01*
X111184411Y-63666172D01*
X110884231Y-64104626D01*
X113050000Y-66270395D01*
X113064143Y-66256253D01*
X113243748Y-66435858D01*
X113229605Y-66450000D01*
X115395374Y-68615769D01*
X115833828Y-68315589D01*
X115890001Y-68210840D01*
X115890000Y-122647916D01*
X115838904Y-122552008D01*
X115833828Y-122544411D01*
X115395374Y-122244231D01*
X113229605Y-124410000D01*
X113243748Y-124424143D01*
X113064143Y-124603748D01*
X113050000Y-124589605D01*
X110884231Y-126755374D01*
X111184411Y-127193828D01*
X111270510Y-127240000D01*
X106730854Y-127240000D01*
X106807992Y-127198904D01*
X106815589Y-127193828D01*
X107115769Y-126755374D01*
X104950000Y-124589605D01*
X102784231Y-126755374D01*
X103084411Y-127193828D01*
X103170510Y-127240000D01*
X98630854Y-127240000D01*
X98707992Y-127198904D01*
X98715589Y-127193828D01*
X99015769Y-126755374D01*
X96850000Y-124589605D01*
X96835858Y-124603748D01*
X96656253Y-124424143D01*
X96670395Y-124410000D01*
X97029605Y-124410000D01*
X99195374Y-126575769D01*
X99633828Y-126275589D01*
X99944296Y-125696644D01*
X100135852Y-125068254D01*
X100201134Y-124414569D01*
X100137634Y-123760707D01*
X99947792Y-123131797D01*
X99638904Y-122552008D01*
X99633828Y-122544411D01*
X99195374Y-122244231D01*
X97029605Y-124410000D01*
X96670395Y-124410000D01*
X94504626Y-122244231D01*
X94066172Y-122544411D01*
X94010000Y-122649158D01*
X94010000Y-120823804D01*
X94432204Y-121246009D01*
X94455998Y-121275002D01*
X94484991Y-121298796D01*
X94484995Y-121298800D01*
X94549393Y-121351649D01*
X94571723Y-121369975D01*
X94703752Y-121440547D01*
X94847013Y-121484004D01*
X94958666Y-121495001D01*
X94958675Y-121495001D01*
X94995998Y-121498677D01*
X95033321Y-121495001D01*
X95228691Y-121495001D01*
X94992008Y-121621096D01*
X94984411Y-121626172D01*
X94684231Y-122064626D01*
X96850000Y-124230395D01*
X99015769Y-122064626D01*
X98715589Y-121626172D01*
X98470988Y-121495001D01*
X100795445Y-121495001D01*
X100765000Y-121648061D01*
X100765000Y-121851939D01*
X100804774Y-122051898D01*
X100882795Y-122240256D01*
X100996063Y-122409774D01*
X101140226Y-122553937D01*
X101309744Y-122667205D01*
X101498102Y-122745226D01*
X101698061Y-122785000D01*
X101901939Y-122785000D01*
X102053298Y-122754893D01*
X101855704Y-123123356D01*
X101664148Y-123751746D01*
X101598866Y-124405431D01*
X101662366Y-125059293D01*
X101852208Y-125688203D01*
X102161096Y-126267992D01*
X102166172Y-126275589D01*
X102604626Y-126575769D01*
X104770395Y-124410000D01*
X105129605Y-124410000D01*
X107295374Y-126575769D01*
X107733828Y-126275589D01*
X108044296Y-125696644D01*
X108235852Y-125068254D01*
X108301134Y-124414569D01*
X108300247Y-124405431D01*
X109698866Y-124405431D01*
X109762366Y-125059293D01*
X109952208Y-125688203D01*
X110261096Y-126267992D01*
X110266172Y-126275589D01*
X110704626Y-126575769D01*
X112870395Y-124410000D01*
X110704626Y-122244231D01*
X110266172Y-122544411D01*
X109955704Y-123123356D01*
X109764148Y-123751746D01*
X109698866Y-124405431D01*
X108300247Y-124405431D01*
X108237634Y-123760707D01*
X108047792Y-123131797D01*
X107738904Y-122552008D01*
X107733828Y-122544411D01*
X107295374Y-122244231D01*
X105129605Y-124410000D01*
X104770395Y-124410000D01*
X104756253Y-124395858D01*
X104935858Y-124216253D01*
X104950000Y-124230395D01*
X107115769Y-122064626D01*
X106815589Y-121626172D01*
X106236644Y-121315704D01*
X105686731Y-121148071D01*
X105833592Y-121001209D01*
X106053740Y-121045000D01*
X106346260Y-121045000D01*
X106566408Y-121001210D01*
X106811202Y-121246004D01*
X106835000Y-121275002D01*
X106950725Y-121369975D01*
X107082754Y-121440547D01*
X107226015Y-121484004D01*
X107337668Y-121495001D01*
X107337677Y-121495001D01*
X107375000Y-121498677D01*
X107412323Y-121495001D01*
X111428691Y-121495001D01*
X111192008Y-121621096D01*
X111184411Y-121626172D01*
X110884231Y-122064626D01*
X113050000Y-124230395D01*
X115215769Y-122064626D01*
X114915589Y-121626172D01*
X114336644Y-121315704D01*
X113708254Y-121124148D01*
X113073088Y-121060715D01*
X113393509Y-120740296D01*
X113596589Y-120875990D01*
X113866842Y-120987932D01*
X114153740Y-121045000D01*
X114446260Y-121045000D01*
X114733158Y-120987932D01*
X115003411Y-120875990D01*
X115246632Y-120713475D01*
X115453475Y-120506632D01*
X115615990Y-120263411D01*
X115727932Y-119993158D01*
X115785000Y-119706260D01*
X115785000Y-119413740D01*
X115727932Y-119126842D01*
X115615990Y-118856589D01*
X115453475Y-118613368D01*
X115246632Y-118406525D01*
X115072240Y-118290000D01*
X115246632Y-118173475D01*
X115453475Y-117966632D01*
X115615990Y-117723411D01*
X115727932Y-117453158D01*
X115785000Y-117166260D01*
X115785000Y-116873740D01*
X115727932Y-116586842D01*
X115615990Y-116316589D01*
X115453475Y-116073368D01*
X115246632Y-115866525D01*
X115072240Y-115750000D01*
X115246632Y-115633475D01*
X115453475Y-115426632D01*
X115615990Y-115183411D01*
X115727932Y-114913158D01*
X115785000Y-114626260D01*
X115785000Y-114333740D01*
X115727932Y-114046842D01*
X115615990Y-113776589D01*
X115453475Y-113533368D01*
X115246632Y-113326525D01*
X115064466Y-113204805D01*
X115181355Y-113135178D01*
X115397588Y-112940269D01*
X115571641Y-112706920D01*
X115696825Y-112444099D01*
X115741476Y-112296890D01*
X115620155Y-112067000D01*
X114427000Y-112067000D01*
X114427000Y-112087000D01*
X114173000Y-112087000D01*
X114173000Y-112067000D01*
X114153000Y-112067000D01*
X114153000Y-111813000D01*
X114173000Y-111813000D01*
X114173000Y-111793000D01*
X114427000Y-111793000D01*
X114427000Y-111813000D01*
X115620155Y-111813000D01*
X115741476Y-111583110D01*
X115696825Y-111435901D01*
X115571641Y-111173080D01*
X115397588Y-110939731D01*
X115181355Y-110744822D01*
X115064466Y-110675195D01*
X115246632Y-110553475D01*
X115453475Y-110346632D01*
X115615990Y-110103411D01*
X115727932Y-109833158D01*
X115785000Y-109546260D01*
X115785000Y-109253740D01*
X115727932Y-108966842D01*
X115615990Y-108696589D01*
X115453475Y-108453368D01*
X115246632Y-108246525D01*
X115064466Y-108124805D01*
X115181355Y-108055178D01*
X115397588Y-107860269D01*
X115571641Y-107626920D01*
X115696825Y-107364099D01*
X115741476Y-107216890D01*
X115620155Y-106987000D01*
X114427000Y-106987000D01*
X114427000Y-107007000D01*
X114173000Y-107007000D01*
X114173000Y-106987000D01*
X114153000Y-106987000D01*
X114153000Y-106733000D01*
X114173000Y-106733000D01*
X114173000Y-106713000D01*
X114427000Y-106713000D01*
X114427000Y-106733000D01*
X115620155Y-106733000D01*
X115741476Y-106503110D01*
X115696825Y-106355901D01*
X115571641Y-106093080D01*
X115397588Y-105859731D01*
X115181355Y-105664822D01*
X115064466Y-105595195D01*
X115246632Y-105473475D01*
X115453475Y-105266632D01*
X115615990Y-105023411D01*
X115727932Y-104753158D01*
X115785000Y-104466260D01*
X115785000Y-104173740D01*
X115727932Y-103886842D01*
X115615990Y-103616589D01*
X115453475Y-103373368D01*
X115246632Y-103166525D01*
X115072240Y-103050000D01*
X115246632Y-102933475D01*
X115453475Y-102726632D01*
X115615990Y-102483411D01*
X115727932Y-102213158D01*
X115785000Y-101926260D01*
X115785000Y-101633740D01*
X115727932Y-101346842D01*
X115615990Y-101076589D01*
X115453475Y-100833368D01*
X115246632Y-100626525D01*
X115072240Y-100510000D01*
X115246632Y-100393475D01*
X115453475Y-100186632D01*
X115615990Y-99943411D01*
X115727932Y-99673158D01*
X115785000Y-99386260D01*
X115785000Y-99093740D01*
X115727932Y-98806842D01*
X115615990Y-98536589D01*
X115453475Y-98293368D01*
X115246632Y-98086525D01*
X115072240Y-97970000D01*
X115246632Y-97853475D01*
X115453475Y-97646632D01*
X115615990Y-97403411D01*
X115727932Y-97133158D01*
X115785000Y-96846260D01*
X115785000Y-96553740D01*
X115727932Y-96266842D01*
X115615990Y-95996589D01*
X115453475Y-95753368D01*
X115246632Y-95546525D01*
X115064466Y-95424805D01*
X115181355Y-95355178D01*
X115397588Y-95160269D01*
X115571641Y-94926920D01*
X115696825Y-94664099D01*
X115741476Y-94516890D01*
X115620155Y-94287000D01*
X114427000Y-94287000D01*
X114427000Y-94307000D01*
X114173000Y-94307000D01*
X114173000Y-94287000D01*
X114153000Y-94287000D01*
X114153000Y-94033000D01*
X114173000Y-94033000D01*
X114173000Y-94013000D01*
X114427000Y-94013000D01*
X114427000Y-94033000D01*
X115620155Y-94033000D01*
X115741476Y-93803110D01*
X115696825Y-93655901D01*
X115571641Y-93393080D01*
X115397588Y-93159731D01*
X115181355Y-92964822D01*
X115064466Y-92895195D01*
X115246632Y-92773475D01*
X115453475Y-92566632D01*
X115615990Y-92323411D01*
X115727932Y-92053158D01*
X115785000Y-91766260D01*
X115785000Y-91473740D01*
X115727932Y-91186842D01*
X115615990Y-90916589D01*
X115453475Y-90673368D01*
X115246632Y-90466525D01*
X115072240Y-90350000D01*
X115246632Y-90233475D01*
X115453475Y-90026632D01*
X115615990Y-89783411D01*
X115727932Y-89513158D01*
X115785000Y-89226260D01*
X115785000Y-88933740D01*
X115727932Y-88646842D01*
X115615990Y-88376589D01*
X115453475Y-88133368D01*
X115246632Y-87926525D01*
X115064466Y-87804805D01*
X115181355Y-87735178D01*
X115397588Y-87540269D01*
X115571641Y-87306920D01*
X115696825Y-87044099D01*
X115741476Y-86896890D01*
X115620155Y-86667000D01*
X114427000Y-86667000D01*
X114427000Y-86687000D01*
X114173000Y-86687000D01*
X114173000Y-86667000D01*
X114153000Y-86667000D01*
X114153000Y-86413000D01*
X114173000Y-86413000D01*
X114173000Y-86393000D01*
X114427000Y-86393000D01*
X114427000Y-86413000D01*
X115620155Y-86413000D01*
X115741476Y-86183110D01*
X115696825Y-86035901D01*
X115571641Y-85773080D01*
X115397588Y-85539731D01*
X115181355Y-85344822D01*
X115064466Y-85275195D01*
X115246632Y-85153475D01*
X115453475Y-84946632D01*
X115615990Y-84703411D01*
X115727932Y-84433158D01*
X115785000Y-84146260D01*
X115785000Y-83853740D01*
X115727932Y-83566842D01*
X115615990Y-83296589D01*
X115453475Y-83053368D01*
X115246632Y-82846525D01*
X115072240Y-82730000D01*
X115246632Y-82613475D01*
X115453475Y-82406632D01*
X115615990Y-82163411D01*
X115727932Y-81893158D01*
X115785000Y-81606260D01*
X115785000Y-81313740D01*
X115727932Y-81026842D01*
X115615990Y-80756589D01*
X115453475Y-80513368D01*
X115246632Y-80306525D01*
X115072240Y-80190000D01*
X115246632Y-80073475D01*
X115453475Y-79866632D01*
X115615990Y-79623411D01*
X115727932Y-79353158D01*
X115785000Y-79066260D01*
X115785000Y-78773740D01*
X115727932Y-78486842D01*
X115615990Y-78216589D01*
X115453475Y-77973368D01*
X115246632Y-77766525D01*
X115064466Y-77644805D01*
X115181355Y-77575178D01*
X115397588Y-77380269D01*
X115571641Y-77146920D01*
X115696825Y-76884099D01*
X115741476Y-76736890D01*
X115620155Y-76507000D01*
X114427000Y-76507000D01*
X114427000Y-76527000D01*
X114173000Y-76527000D01*
X114173000Y-76507000D01*
X114153000Y-76507000D01*
X114153000Y-76253000D01*
X114173000Y-76253000D01*
X114173000Y-76233000D01*
X114427000Y-76233000D01*
X114427000Y-76253000D01*
X115620155Y-76253000D01*
X115741476Y-76023110D01*
X115696825Y-75875901D01*
X115571641Y-75613080D01*
X115397588Y-75379731D01*
X115181355Y-75184822D01*
X115064466Y-75115195D01*
X115246632Y-74993475D01*
X115453475Y-74786632D01*
X115615990Y-74543411D01*
X115727932Y-74273158D01*
X115785000Y-73986260D01*
X115785000Y-73693740D01*
X115727932Y-73406842D01*
X115615990Y-73136589D01*
X115453475Y-72893368D01*
X115246632Y-72686525D01*
X115072240Y-72570000D01*
X115246632Y-72453475D01*
X115453475Y-72246632D01*
X115615990Y-72003411D01*
X115727932Y-71733158D01*
X115785000Y-71446260D01*
X115785000Y-71153740D01*
X115727932Y-70866842D01*
X115615990Y-70596589D01*
X115453475Y-70353368D01*
X115246632Y-70146525D01*
X115003411Y-69984010D01*
X114733158Y-69872068D01*
X114446260Y-69815000D01*
X114153740Y-69815000D01*
X113866842Y-69872068D01*
X113596589Y-69984010D01*
X113353368Y-70146525D01*
X113221513Y-70278380D01*
X113199502Y-70205820D01*
X113140537Y-70095506D01*
X113061185Y-69998815D01*
X112964494Y-69919463D01*
X112854180Y-69860498D01*
X112734482Y-69824188D01*
X112610000Y-69811928D01*
X111346729Y-69811928D01*
X111148803Y-69614002D01*
X111125000Y-69584998D01*
X111009275Y-69490025D01*
X110877246Y-69419453D01*
X110733985Y-69375996D01*
X110622332Y-69364999D01*
X110622321Y-69364999D01*
X110584999Y-69361323D01*
X110547677Y-69364999D01*
X106571309Y-69364999D01*
X106807992Y-69238904D01*
X106815589Y-69233828D01*
X107115769Y-68795374D01*
X110884231Y-68795374D01*
X111184411Y-69233828D01*
X111763356Y-69544296D01*
X112391746Y-69735852D01*
X113045431Y-69801134D01*
X113699293Y-69737634D01*
X114328203Y-69547792D01*
X114907992Y-69238904D01*
X114915589Y-69233828D01*
X115215769Y-68795374D01*
X113050000Y-66629605D01*
X110884231Y-68795374D01*
X107115769Y-68795374D01*
X104950000Y-66629605D01*
X102784231Y-68795374D01*
X103084411Y-69233828D01*
X103663356Y-69544296D01*
X104182614Y-69702585D01*
X104073270Y-69811928D01*
X102810000Y-69811928D01*
X102685518Y-69824188D01*
X102565820Y-69860498D01*
X102455506Y-69919463D01*
X102358815Y-69998815D01*
X102279463Y-70095506D01*
X102220498Y-70205820D01*
X102184188Y-70325518D01*
X102171928Y-70450000D01*
X102171928Y-72150000D01*
X102184188Y-72274482D01*
X102220498Y-72394180D01*
X102279463Y-72504494D01*
X102358815Y-72601185D01*
X102455506Y-72680537D01*
X102565820Y-72739502D01*
X102638380Y-72761513D01*
X102506525Y-72893368D01*
X102344010Y-73136589D01*
X102232068Y-73406842D01*
X102175000Y-73693740D01*
X102175000Y-73986260D01*
X102232068Y-74273158D01*
X102344010Y-74543411D01*
X102506525Y-74786632D01*
X102713368Y-74993475D01*
X102887760Y-75110000D01*
X102713368Y-75226525D01*
X102506525Y-75433368D01*
X102344010Y-75676589D01*
X102232068Y-75946842D01*
X102175000Y-76233740D01*
X102175000Y-76526260D01*
X102232068Y-76813158D01*
X102344010Y-77083411D01*
X102506525Y-77326632D01*
X102713368Y-77533475D01*
X102887760Y-77650000D01*
X102713368Y-77766525D01*
X102506525Y-77973368D01*
X102344010Y-78216589D01*
X102232068Y-78486842D01*
X102175000Y-78773740D01*
X102175000Y-79066260D01*
X102232068Y-79353158D01*
X102344010Y-79623411D01*
X102506525Y-79866632D01*
X102713368Y-80073475D01*
X102895534Y-80195195D01*
X102778645Y-80264822D01*
X102562412Y-80459731D01*
X102388359Y-80693080D01*
X102263175Y-80955901D01*
X102218524Y-81103110D01*
X102339845Y-81333000D01*
X103533000Y-81333000D01*
X103533000Y-81313000D01*
X103787000Y-81313000D01*
X103787000Y-81333000D01*
X103807000Y-81333000D01*
X103807000Y-81587000D01*
X103787000Y-81587000D01*
X103787000Y-81607000D01*
X103533000Y-81607000D01*
X103533000Y-81587000D01*
X102339845Y-81587000D01*
X102218524Y-81816890D01*
X102263175Y-81964099D01*
X102388359Y-82226920D01*
X102562412Y-82460269D01*
X102778645Y-82655178D01*
X102895534Y-82724805D01*
X102713368Y-82846525D01*
X102506525Y-83053368D01*
X102344010Y-83296589D01*
X102232068Y-83566842D01*
X102175000Y-83853740D01*
X102175000Y-84146260D01*
X102228456Y-84415001D01*
X99531544Y-84415001D01*
X99585000Y-84146260D01*
X99585000Y-83853740D01*
X99527932Y-83566842D01*
X99415990Y-83296589D01*
X99253475Y-83053368D01*
X99046632Y-82846525D01*
X98872240Y-82730000D01*
X99046632Y-82613475D01*
X99253475Y-82406632D01*
X99415990Y-82163411D01*
X99527932Y-81893158D01*
X99585000Y-81606260D01*
X99585000Y-81313740D01*
X99527932Y-81026842D01*
X99415990Y-80756589D01*
X99253475Y-80513368D01*
X99046632Y-80306525D01*
X98872240Y-80190000D01*
X99046632Y-80073475D01*
X99253475Y-79866632D01*
X99415990Y-79623411D01*
X99527932Y-79353158D01*
X99585000Y-79066260D01*
X99585000Y-78773740D01*
X99527932Y-78486842D01*
X99415990Y-78216589D01*
X99253475Y-77973368D01*
X99046632Y-77766525D01*
X98864466Y-77644805D01*
X98981355Y-77575178D01*
X99197588Y-77380269D01*
X99371641Y-77146920D01*
X99496825Y-76884099D01*
X99541476Y-76736890D01*
X99420155Y-76507000D01*
X98227000Y-76507000D01*
X98227000Y-76527000D01*
X97973000Y-76527000D01*
X97973000Y-76507000D01*
X97953000Y-76507000D01*
X97953000Y-76253000D01*
X97973000Y-76253000D01*
X97973000Y-76233000D01*
X98227000Y-76233000D01*
X98227000Y-76253000D01*
X99420155Y-76253000D01*
X99541476Y-76023110D01*
X99496825Y-75875901D01*
X99371641Y-75613080D01*
X99197588Y-75379731D01*
X98981355Y-75184822D01*
X98864466Y-75115195D01*
X99046632Y-74993475D01*
X99253475Y-74786632D01*
X99415990Y-74543411D01*
X99527932Y-74273158D01*
X99585000Y-73986260D01*
X99585000Y-73693740D01*
X99527932Y-73406842D01*
X99415990Y-73136589D01*
X99253475Y-72893368D01*
X99046632Y-72686525D01*
X98872240Y-72570000D01*
X99046632Y-72453475D01*
X99253475Y-72246632D01*
X99415990Y-72003411D01*
X99527932Y-71733158D01*
X99585000Y-71446260D01*
X99585000Y-71153740D01*
X99527932Y-70866842D01*
X99415990Y-70596589D01*
X99253475Y-70353368D01*
X99046632Y-70146525D01*
X98803411Y-69984010D01*
X98533158Y-69872068D01*
X98246260Y-69815000D01*
X97953740Y-69815000D01*
X97666842Y-69872068D01*
X97396589Y-69984010D01*
X97153368Y-70146525D01*
X97021513Y-70278380D01*
X96999502Y-70205820D01*
X96940537Y-70095506D01*
X96861185Y-69998815D01*
X96764494Y-69919463D01*
X96654180Y-69860498D01*
X96534482Y-69824188D01*
X96410000Y-69811928D01*
X94710000Y-69811928D01*
X94585518Y-69824188D01*
X94465820Y-69860498D01*
X94355506Y-69919463D01*
X94258815Y-69998815D01*
X94179463Y-70095506D01*
X94120498Y-70205820D01*
X94084188Y-70325518D01*
X94071928Y-70450000D01*
X94071928Y-72150000D01*
X94084188Y-72274482D01*
X94120498Y-72394180D01*
X94179463Y-72504494D01*
X94258815Y-72601185D01*
X94355506Y-72680537D01*
X94465820Y-72739502D01*
X94538380Y-72761513D01*
X94406525Y-72893368D01*
X94244010Y-73136589D01*
X94132068Y-73406842D01*
X94075000Y-73693740D01*
X94075000Y-73986260D01*
X94132068Y-74273158D01*
X94244010Y-74543411D01*
X94406525Y-74786632D01*
X94613368Y-74993475D01*
X94787760Y-75110000D01*
X94613368Y-75226525D01*
X94406525Y-75433368D01*
X94244010Y-75676589D01*
X94132068Y-75946842D01*
X94075000Y-76233740D01*
X94075000Y-76526260D01*
X94132068Y-76813158D01*
X94244010Y-77083411D01*
X94406525Y-77326632D01*
X94613368Y-77533475D01*
X94787760Y-77650000D01*
X94613368Y-77766525D01*
X94406525Y-77973368D01*
X94244010Y-78216589D01*
X94132068Y-78486842D01*
X94075000Y-78773740D01*
X94075000Y-79066260D01*
X94132068Y-79353158D01*
X94244010Y-79623411D01*
X94406525Y-79866632D01*
X94613368Y-80073475D01*
X94795534Y-80195195D01*
X94678645Y-80264822D01*
X94462412Y-80459731D01*
X94288359Y-80693080D01*
X94163175Y-80955901D01*
X94118524Y-81103110D01*
X94239845Y-81333000D01*
X95433000Y-81333000D01*
X95433000Y-81313000D01*
X95687000Y-81313000D01*
X95687000Y-81333000D01*
X95707000Y-81333000D01*
X95707000Y-81587000D01*
X95687000Y-81587000D01*
X95687000Y-81607000D01*
X95433000Y-81607000D01*
X95433000Y-81587000D01*
X94239845Y-81587000D01*
X94118524Y-81816890D01*
X94163175Y-81964099D01*
X94288359Y-82226920D01*
X94462412Y-82460269D01*
X94678645Y-82655178D01*
X94795534Y-82724805D01*
X94613368Y-82846525D01*
X94406525Y-83053368D01*
X94244010Y-83296589D01*
X94132068Y-83566842D01*
X94075000Y-83853740D01*
X94075000Y-84146260D01*
X94132068Y-84433158D01*
X94244010Y-84703411D01*
X94406525Y-84946632D01*
X94613368Y-85153475D01*
X94787760Y-85270000D01*
X94613368Y-85386525D01*
X94406525Y-85593368D01*
X94244010Y-85836589D01*
X94132068Y-86106842D01*
X94075000Y-86393740D01*
X94075000Y-86686260D01*
X94118791Y-86906408D01*
X94010000Y-87015199D01*
X94010000Y-68795374D01*
X94684231Y-68795374D01*
X94984411Y-69233828D01*
X95563356Y-69544296D01*
X96191746Y-69735852D01*
X96845431Y-69801134D01*
X97499293Y-69737634D01*
X98128203Y-69547792D01*
X98707992Y-69238904D01*
X98715589Y-69233828D01*
X99015769Y-68795374D01*
X96850000Y-66629605D01*
X94684231Y-68795374D01*
X94010000Y-68795374D01*
X94010000Y-68212084D01*
X94061096Y-68307992D01*
X94066172Y-68315589D01*
X94504626Y-68615769D01*
X96670395Y-66450000D01*
X97029605Y-66450000D01*
X99195374Y-68615769D01*
X99633828Y-68315589D01*
X99944296Y-67736644D01*
X100135852Y-67108254D01*
X100201134Y-66454569D01*
X100200247Y-66445431D01*
X101598866Y-66445431D01*
X101662366Y-67099293D01*
X101852208Y-67728203D01*
X102161096Y-68307992D01*
X102166172Y-68315589D01*
X102604626Y-68615769D01*
X104770395Y-66450000D01*
X105129605Y-66450000D01*
X107295374Y-68615769D01*
X107733828Y-68315589D01*
X108044296Y-67736644D01*
X108235852Y-67108254D01*
X108301134Y-66454569D01*
X108300247Y-66445431D01*
X109698866Y-66445431D01*
X109762366Y-67099293D01*
X109952208Y-67728203D01*
X110261096Y-68307992D01*
X110266172Y-68315589D01*
X110704626Y-68615769D01*
X112870395Y-66450000D01*
X110704626Y-64284231D01*
X110266172Y-64584411D01*
X109955704Y-65163356D01*
X109764148Y-65791746D01*
X109698866Y-66445431D01*
X108300247Y-66445431D01*
X108237634Y-65800707D01*
X108047792Y-65171797D01*
X107738904Y-64592008D01*
X107733828Y-64584411D01*
X107295374Y-64284231D01*
X105129605Y-66450000D01*
X104770395Y-66450000D01*
X102604626Y-64284231D01*
X102166172Y-64584411D01*
X101855704Y-65163356D01*
X101664148Y-65791746D01*
X101598866Y-66445431D01*
X100200247Y-66445431D01*
X100137634Y-65800707D01*
X99947792Y-65171797D01*
X99638904Y-64592008D01*
X99633828Y-64584411D01*
X99195374Y-64284231D01*
X97029605Y-66450000D01*
X96670395Y-66450000D01*
X96656253Y-66435858D01*
X96835858Y-66256253D01*
X96850000Y-66270395D01*
X99015769Y-64104626D01*
X98715589Y-63666172D01*
X98610842Y-63610000D01*
X103187916Y-63610000D01*
X103092008Y-63661096D01*
G37*
X103092008Y-63661096D02*
X103084411Y-63666172D01*
X102784231Y-64104626D01*
X104950000Y-66270395D01*
X107115769Y-64104626D01*
X106815589Y-63666172D01*
X106710842Y-63610000D01*
X111287916Y-63610000D01*
X111192008Y-63661096D01*
X111184411Y-63666172D01*
X110884231Y-64104626D01*
X113050000Y-66270395D01*
X113064143Y-66256253D01*
X113243748Y-66435858D01*
X113229605Y-66450000D01*
X115395374Y-68615769D01*
X115833828Y-68315589D01*
X115890001Y-68210840D01*
X115890000Y-122647916D01*
X115838904Y-122552008D01*
X115833828Y-122544411D01*
X115395374Y-122244231D01*
X113229605Y-124410000D01*
X113243748Y-124424143D01*
X113064143Y-124603748D01*
X113050000Y-124589605D01*
X110884231Y-126755374D01*
X111184411Y-127193828D01*
X111270510Y-127240000D01*
X106730854Y-127240000D01*
X106807992Y-127198904D01*
X106815589Y-127193828D01*
X107115769Y-126755374D01*
X104950000Y-124589605D01*
X102784231Y-126755374D01*
X103084411Y-127193828D01*
X103170510Y-127240000D01*
X98630854Y-127240000D01*
X98707992Y-127198904D01*
X98715589Y-127193828D01*
X99015769Y-126755374D01*
X96850000Y-124589605D01*
X96835858Y-124603748D01*
X96656253Y-124424143D01*
X96670395Y-124410000D01*
X97029605Y-124410000D01*
X99195374Y-126575769D01*
X99633828Y-126275589D01*
X99944296Y-125696644D01*
X100135852Y-125068254D01*
X100201134Y-124414569D01*
X100137634Y-123760707D01*
X99947792Y-123131797D01*
X99638904Y-122552008D01*
X99633828Y-122544411D01*
X99195374Y-122244231D01*
X97029605Y-124410000D01*
X96670395Y-124410000D01*
X94504626Y-122244231D01*
X94066172Y-122544411D01*
X94010000Y-122649158D01*
X94010000Y-120823804D01*
X94432204Y-121246009D01*
X94455998Y-121275002D01*
X94484991Y-121298796D01*
X94484995Y-121298800D01*
X94549393Y-121351649D01*
X94571723Y-121369975D01*
X94703752Y-121440547D01*
X94847013Y-121484004D01*
X94958666Y-121495001D01*
X94958675Y-121495001D01*
X94995998Y-121498677D01*
X95033321Y-121495001D01*
X95228691Y-121495001D01*
X94992008Y-121621096D01*
X94984411Y-121626172D01*
X94684231Y-122064626D01*
X96850000Y-124230395D01*
X99015769Y-122064626D01*
X98715589Y-121626172D01*
X98470988Y-121495001D01*
X100795445Y-121495001D01*
X100765000Y-121648061D01*
X100765000Y-121851939D01*
X100804774Y-122051898D01*
X100882795Y-122240256D01*
X100996063Y-122409774D01*
X101140226Y-122553937D01*
X101309744Y-122667205D01*
X101498102Y-122745226D01*
X101698061Y-122785000D01*
X101901939Y-122785000D01*
X102053298Y-122754893D01*
X101855704Y-123123356D01*
X101664148Y-123751746D01*
X101598866Y-124405431D01*
X101662366Y-125059293D01*
X101852208Y-125688203D01*
X102161096Y-126267992D01*
X102166172Y-126275589D01*
X102604626Y-126575769D01*
X104770395Y-124410000D01*
X105129605Y-124410000D01*
X107295374Y-126575769D01*
X107733828Y-126275589D01*
X108044296Y-125696644D01*
X108235852Y-125068254D01*
X108301134Y-124414569D01*
X108300247Y-124405431D01*
X109698866Y-124405431D01*
X109762366Y-125059293D01*
X109952208Y-125688203D01*
X110261096Y-126267992D01*
X110266172Y-126275589D01*
X110704626Y-126575769D01*
X112870395Y-124410000D01*
X110704626Y-122244231D01*
X110266172Y-122544411D01*
X109955704Y-123123356D01*
X109764148Y-123751746D01*
X109698866Y-124405431D01*
X108300247Y-124405431D01*
X108237634Y-123760707D01*
X108047792Y-123131797D01*
X107738904Y-122552008D01*
X107733828Y-122544411D01*
X107295374Y-122244231D01*
X105129605Y-124410000D01*
X104770395Y-124410000D01*
X104756253Y-124395858D01*
X104935858Y-124216253D01*
X104950000Y-124230395D01*
X107115769Y-122064626D01*
X106815589Y-121626172D01*
X106236644Y-121315704D01*
X105686731Y-121148071D01*
X105833592Y-121001209D01*
X106053740Y-121045000D01*
X106346260Y-121045000D01*
X106566408Y-121001210D01*
X106811202Y-121246004D01*
X106835000Y-121275002D01*
X106950725Y-121369975D01*
X107082754Y-121440547D01*
X107226015Y-121484004D01*
X107337668Y-121495001D01*
X107337677Y-121495001D01*
X107375000Y-121498677D01*
X107412323Y-121495001D01*
X111428691Y-121495001D01*
X111192008Y-121621096D01*
X111184411Y-121626172D01*
X110884231Y-122064626D01*
X113050000Y-124230395D01*
X115215769Y-122064626D01*
X114915589Y-121626172D01*
X114336644Y-121315704D01*
X113708254Y-121124148D01*
X113073088Y-121060715D01*
X113393509Y-120740296D01*
X113596589Y-120875990D01*
X113866842Y-120987932D01*
X114153740Y-121045000D01*
X114446260Y-121045000D01*
X114733158Y-120987932D01*
X115003411Y-120875990D01*
X115246632Y-120713475D01*
X115453475Y-120506632D01*
X115615990Y-120263411D01*
X115727932Y-119993158D01*
X115785000Y-119706260D01*
X115785000Y-119413740D01*
X115727932Y-119126842D01*
X115615990Y-118856589D01*
X115453475Y-118613368D01*
X115246632Y-118406525D01*
X115072240Y-118290000D01*
X115246632Y-118173475D01*
X115453475Y-117966632D01*
X115615990Y-117723411D01*
X115727932Y-117453158D01*
X115785000Y-117166260D01*
X115785000Y-116873740D01*
X115727932Y-116586842D01*
X115615990Y-116316589D01*
X115453475Y-116073368D01*
X115246632Y-115866525D01*
X115072240Y-115750000D01*
X115246632Y-115633475D01*
X115453475Y-115426632D01*
X115615990Y-115183411D01*
X115727932Y-114913158D01*
X115785000Y-114626260D01*
X115785000Y-114333740D01*
X115727932Y-114046842D01*
X115615990Y-113776589D01*
X115453475Y-113533368D01*
X115246632Y-113326525D01*
X115064466Y-113204805D01*
X115181355Y-113135178D01*
X115397588Y-112940269D01*
X115571641Y-112706920D01*
X115696825Y-112444099D01*
X115741476Y-112296890D01*
X115620155Y-112067000D01*
X114427000Y-112067000D01*
X114427000Y-112087000D01*
X114173000Y-112087000D01*
X114173000Y-112067000D01*
X114153000Y-112067000D01*
X114153000Y-111813000D01*
X114173000Y-111813000D01*
X114173000Y-111793000D01*
X114427000Y-111793000D01*
X114427000Y-111813000D01*
X115620155Y-111813000D01*
X115741476Y-111583110D01*
X115696825Y-111435901D01*
X115571641Y-111173080D01*
X115397588Y-110939731D01*
X115181355Y-110744822D01*
X115064466Y-110675195D01*
X115246632Y-110553475D01*
X115453475Y-110346632D01*
X115615990Y-110103411D01*
X115727932Y-109833158D01*
X115785000Y-109546260D01*
X115785000Y-109253740D01*
X115727932Y-108966842D01*
X115615990Y-108696589D01*
X115453475Y-108453368D01*
X115246632Y-108246525D01*
X115064466Y-108124805D01*
X115181355Y-108055178D01*
X115397588Y-107860269D01*
X115571641Y-107626920D01*
X115696825Y-107364099D01*
X115741476Y-107216890D01*
X115620155Y-106987000D01*
X114427000Y-106987000D01*
X114427000Y-107007000D01*
X114173000Y-107007000D01*
X114173000Y-106987000D01*
X114153000Y-106987000D01*
X114153000Y-106733000D01*
X114173000Y-106733000D01*
X114173000Y-106713000D01*
X114427000Y-106713000D01*
X114427000Y-106733000D01*
X115620155Y-106733000D01*
X115741476Y-106503110D01*
X115696825Y-106355901D01*
X115571641Y-106093080D01*
X115397588Y-105859731D01*
X115181355Y-105664822D01*
X115064466Y-105595195D01*
X115246632Y-105473475D01*
X115453475Y-105266632D01*
X115615990Y-105023411D01*
X115727932Y-104753158D01*
X115785000Y-104466260D01*
X115785000Y-104173740D01*
X115727932Y-103886842D01*
X115615990Y-103616589D01*
X115453475Y-103373368D01*
X115246632Y-103166525D01*
X115072240Y-103050000D01*
X115246632Y-102933475D01*
X115453475Y-102726632D01*
X115615990Y-102483411D01*
X115727932Y-102213158D01*
X115785000Y-101926260D01*
X115785000Y-101633740D01*
X115727932Y-101346842D01*
X115615990Y-101076589D01*
X115453475Y-100833368D01*
X115246632Y-100626525D01*
X115072240Y-100510000D01*
X115246632Y-100393475D01*
X115453475Y-100186632D01*
X115615990Y-99943411D01*
X115727932Y-99673158D01*
X115785000Y-99386260D01*
X115785000Y-99093740D01*
X115727932Y-98806842D01*
X115615990Y-98536589D01*
X115453475Y-98293368D01*
X115246632Y-98086525D01*
X115072240Y-97970000D01*
X115246632Y-97853475D01*
X115453475Y-97646632D01*
X115615990Y-97403411D01*
X115727932Y-97133158D01*
X115785000Y-96846260D01*
X115785000Y-96553740D01*
X115727932Y-96266842D01*
X115615990Y-95996589D01*
X115453475Y-95753368D01*
X115246632Y-95546525D01*
X115064466Y-95424805D01*
X115181355Y-95355178D01*
X115397588Y-95160269D01*
X115571641Y-94926920D01*
X115696825Y-94664099D01*
X115741476Y-94516890D01*
X115620155Y-94287000D01*
X114427000Y-94287000D01*
X114427000Y-94307000D01*
X114173000Y-94307000D01*
X114173000Y-94287000D01*
X114153000Y-94287000D01*
X114153000Y-94033000D01*
X114173000Y-94033000D01*
X114173000Y-94013000D01*
X114427000Y-94013000D01*
X114427000Y-94033000D01*
X115620155Y-94033000D01*
X115741476Y-93803110D01*
X115696825Y-93655901D01*
X115571641Y-93393080D01*
X115397588Y-93159731D01*
X115181355Y-92964822D01*
X115064466Y-92895195D01*
X115246632Y-92773475D01*
X115453475Y-92566632D01*
X115615990Y-92323411D01*
X115727932Y-92053158D01*
X115785000Y-91766260D01*
X115785000Y-91473740D01*
X115727932Y-91186842D01*
X115615990Y-90916589D01*
X115453475Y-90673368D01*
X115246632Y-90466525D01*
X115072240Y-90350000D01*
X115246632Y-90233475D01*
X115453475Y-90026632D01*
X115615990Y-89783411D01*
X115727932Y-89513158D01*
X115785000Y-89226260D01*
X115785000Y-88933740D01*
X115727932Y-88646842D01*
X115615990Y-88376589D01*
X115453475Y-88133368D01*
X115246632Y-87926525D01*
X115064466Y-87804805D01*
X115181355Y-87735178D01*
X115397588Y-87540269D01*
X115571641Y-87306920D01*
X115696825Y-87044099D01*
X115741476Y-86896890D01*
X115620155Y-86667000D01*
X114427000Y-86667000D01*
X114427000Y-86687000D01*
X114173000Y-86687000D01*
X114173000Y-86667000D01*
X114153000Y-86667000D01*
X114153000Y-86413000D01*
X114173000Y-86413000D01*
X114173000Y-86393000D01*
X114427000Y-86393000D01*
X114427000Y-86413000D01*
X115620155Y-86413000D01*
X115741476Y-86183110D01*
X115696825Y-86035901D01*
X115571641Y-85773080D01*
X115397588Y-85539731D01*
X115181355Y-85344822D01*
X115064466Y-85275195D01*
X115246632Y-85153475D01*
X115453475Y-84946632D01*
X115615990Y-84703411D01*
X115727932Y-84433158D01*
X115785000Y-84146260D01*
X115785000Y-83853740D01*
X115727932Y-83566842D01*
X115615990Y-83296589D01*
X115453475Y-83053368D01*
X115246632Y-82846525D01*
X115072240Y-82730000D01*
X115246632Y-82613475D01*
X115453475Y-82406632D01*
X115615990Y-82163411D01*
X115727932Y-81893158D01*
X115785000Y-81606260D01*
X115785000Y-81313740D01*
X115727932Y-81026842D01*
X115615990Y-80756589D01*
X115453475Y-80513368D01*
X115246632Y-80306525D01*
X115072240Y-80190000D01*
X115246632Y-80073475D01*
X115453475Y-79866632D01*
X115615990Y-79623411D01*
X115727932Y-79353158D01*
X115785000Y-79066260D01*
X115785000Y-78773740D01*
X115727932Y-78486842D01*
X115615990Y-78216589D01*
X115453475Y-77973368D01*
X115246632Y-77766525D01*
X115064466Y-77644805D01*
X115181355Y-77575178D01*
X115397588Y-77380269D01*
X115571641Y-77146920D01*
X115696825Y-76884099D01*
X115741476Y-76736890D01*
X115620155Y-76507000D01*
X114427000Y-76507000D01*
X114427000Y-76527000D01*
X114173000Y-76527000D01*
X114173000Y-76507000D01*
X114153000Y-76507000D01*
X114153000Y-76253000D01*
X114173000Y-76253000D01*
X114173000Y-76233000D01*
X114427000Y-76233000D01*
X114427000Y-76253000D01*
X115620155Y-76253000D01*
X115741476Y-76023110D01*
X115696825Y-75875901D01*
X115571641Y-75613080D01*
X115397588Y-75379731D01*
X115181355Y-75184822D01*
X115064466Y-75115195D01*
X115246632Y-74993475D01*
X115453475Y-74786632D01*
X115615990Y-74543411D01*
X115727932Y-74273158D01*
X115785000Y-73986260D01*
X115785000Y-73693740D01*
X115727932Y-73406842D01*
X115615990Y-73136589D01*
X115453475Y-72893368D01*
X115246632Y-72686525D01*
X115072240Y-72570000D01*
X115246632Y-72453475D01*
X115453475Y-72246632D01*
X115615990Y-72003411D01*
X115727932Y-71733158D01*
X115785000Y-71446260D01*
X115785000Y-71153740D01*
X115727932Y-70866842D01*
X115615990Y-70596589D01*
X115453475Y-70353368D01*
X115246632Y-70146525D01*
X115003411Y-69984010D01*
X114733158Y-69872068D01*
X114446260Y-69815000D01*
X114153740Y-69815000D01*
X113866842Y-69872068D01*
X113596589Y-69984010D01*
X113353368Y-70146525D01*
X113221513Y-70278380D01*
X113199502Y-70205820D01*
X113140537Y-70095506D01*
X113061185Y-69998815D01*
X112964494Y-69919463D01*
X112854180Y-69860498D01*
X112734482Y-69824188D01*
X112610000Y-69811928D01*
X111346729Y-69811928D01*
X111148803Y-69614002D01*
X111125000Y-69584998D01*
X111009275Y-69490025D01*
X110877246Y-69419453D01*
X110733985Y-69375996D01*
X110622332Y-69364999D01*
X110622321Y-69364999D01*
X110584999Y-69361323D01*
X110547677Y-69364999D01*
X106571309Y-69364999D01*
X106807992Y-69238904D01*
X106815589Y-69233828D01*
X107115769Y-68795374D01*
X110884231Y-68795374D01*
X111184411Y-69233828D01*
X111763356Y-69544296D01*
X112391746Y-69735852D01*
X113045431Y-69801134D01*
X113699293Y-69737634D01*
X114328203Y-69547792D01*
X114907992Y-69238904D01*
X114915589Y-69233828D01*
X115215769Y-68795374D01*
X113050000Y-66629605D01*
X110884231Y-68795374D01*
X107115769Y-68795374D01*
X104950000Y-66629605D01*
X102784231Y-68795374D01*
X103084411Y-69233828D01*
X103663356Y-69544296D01*
X104182614Y-69702585D01*
X104073270Y-69811928D01*
X102810000Y-69811928D01*
X102685518Y-69824188D01*
X102565820Y-69860498D01*
X102455506Y-69919463D01*
X102358815Y-69998815D01*
X102279463Y-70095506D01*
X102220498Y-70205820D01*
X102184188Y-70325518D01*
X102171928Y-70450000D01*
X102171928Y-72150000D01*
X102184188Y-72274482D01*
X102220498Y-72394180D01*
X102279463Y-72504494D01*
X102358815Y-72601185D01*
X102455506Y-72680537D01*
X102565820Y-72739502D01*
X102638380Y-72761513D01*
X102506525Y-72893368D01*
X102344010Y-73136589D01*
X102232068Y-73406842D01*
X102175000Y-73693740D01*
X102175000Y-73986260D01*
X102232068Y-74273158D01*
X102344010Y-74543411D01*
X102506525Y-74786632D01*
X102713368Y-74993475D01*
X102887760Y-75110000D01*
X102713368Y-75226525D01*
X102506525Y-75433368D01*
X102344010Y-75676589D01*
X102232068Y-75946842D01*
X102175000Y-76233740D01*
X102175000Y-76526260D01*
X102232068Y-76813158D01*
X102344010Y-77083411D01*
X102506525Y-77326632D01*
X102713368Y-77533475D01*
X102887760Y-77650000D01*
X102713368Y-77766525D01*
X102506525Y-77973368D01*
X102344010Y-78216589D01*
X102232068Y-78486842D01*
X102175000Y-78773740D01*
X102175000Y-79066260D01*
X102232068Y-79353158D01*
X102344010Y-79623411D01*
X102506525Y-79866632D01*
X102713368Y-80073475D01*
X102895534Y-80195195D01*
X102778645Y-80264822D01*
X102562412Y-80459731D01*
X102388359Y-80693080D01*
X102263175Y-80955901D01*
X102218524Y-81103110D01*
X102339845Y-81333000D01*
X103533000Y-81333000D01*
X103533000Y-81313000D01*
X103787000Y-81313000D01*
X103787000Y-81333000D01*
X103807000Y-81333000D01*
X103807000Y-81587000D01*
X103787000Y-81587000D01*
X103787000Y-81607000D01*
X103533000Y-81607000D01*
X103533000Y-81587000D01*
X102339845Y-81587000D01*
X102218524Y-81816890D01*
X102263175Y-81964099D01*
X102388359Y-82226920D01*
X102562412Y-82460269D01*
X102778645Y-82655178D01*
X102895534Y-82724805D01*
X102713368Y-82846525D01*
X102506525Y-83053368D01*
X102344010Y-83296589D01*
X102232068Y-83566842D01*
X102175000Y-83853740D01*
X102175000Y-84146260D01*
X102228456Y-84415001D01*
X99531544Y-84415001D01*
X99585000Y-84146260D01*
X99585000Y-83853740D01*
X99527932Y-83566842D01*
X99415990Y-83296589D01*
X99253475Y-83053368D01*
X99046632Y-82846525D01*
X98872240Y-82730000D01*
X99046632Y-82613475D01*
X99253475Y-82406632D01*
X99415990Y-82163411D01*
X99527932Y-81893158D01*
X99585000Y-81606260D01*
X99585000Y-81313740D01*
X99527932Y-81026842D01*
X99415990Y-80756589D01*
X99253475Y-80513368D01*
X99046632Y-80306525D01*
X98872240Y-80190000D01*
X99046632Y-80073475D01*
X99253475Y-79866632D01*
X99415990Y-79623411D01*
X99527932Y-79353158D01*
X99585000Y-79066260D01*
X99585000Y-78773740D01*
X99527932Y-78486842D01*
X99415990Y-78216589D01*
X99253475Y-77973368D01*
X99046632Y-77766525D01*
X98864466Y-77644805D01*
X98981355Y-77575178D01*
X99197588Y-77380269D01*
X99371641Y-77146920D01*
X99496825Y-76884099D01*
X99541476Y-76736890D01*
X99420155Y-76507000D01*
X98227000Y-76507000D01*
X98227000Y-76527000D01*
X97973000Y-76527000D01*
X97973000Y-76507000D01*
X97953000Y-76507000D01*
X97953000Y-76253000D01*
X97973000Y-76253000D01*
X97973000Y-76233000D01*
X98227000Y-76233000D01*
X98227000Y-76253000D01*
X99420155Y-76253000D01*
X99541476Y-76023110D01*
X99496825Y-75875901D01*
X99371641Y-75613080D01*
X99197588Y-75379731D01*
X98981355Y-75184822D01*
X98864466Y-75115195D01*
X99046632Y-74993475D01*
X99253475Y-74786632D01*
X99415990Y-74543411D01*
X99527932Y-74273158D01*
X99585000Y-73986260D01*
X99585000Y-73693740D01*
X99527932Y-73406842D01*
X99415990Y-73136589D01*
X99253475Y-72893368D01*
X99046632Y-72686525D01*
X98872240Y-72570000D01*
X99046632Y-72453475D01*
X99253475Y-72246632D01*
X99415990Y-72003411D01*
X99527932Y-71733158D01*
X99585000Y-71446260D01*
X99585000Y-71153740D01*
X99527932Y-70866842D01*
X99415990Y-70596589D01*
X99253475Y-70353368D01*
X99046632Y-70146525D01*
X98803411Y-69984010D01*
X98533158Y-69872068D01*
X98246260Y-69815000D01*
X97953740Y-69815000D01*
X97666842Y-69872068D01*
X97396589Y-69984010D01*
X97153368Y-70146525D01*
X97021513Y-70278380D01*
X96999502Y-70205820D01*
X96940537Y-70095506D01*
X96861185Y-69998815D01*
X96764494Y-69919463D01*
X96654180Y-69860498D01*
X96534482Y-69824188D01*
X96410000Y-69811928D01*
X94710000Y-69811928D01*
X94585518Y-69824188D01*
X94465820Y-69860498D01*
X94355506Y-69919463D01*
X94258815Y-69998815D01*
X94179463Y-70095506D01*
X94120498Y-70205820D01*
X94084188Y-70325518D01*
X94071928Y-70450000D01*
X94071928Y-72150000D01*
X94084188Y-72274482D01*
X94120498Y-72394180D01*
X94179463Y-72504494D01*
X94258815Y-72601185D01*
X94355506Y-72680537D01*
X94465820Y-72739502D01*
X94538380Y-72761513D01*
X94406525Y-72893368D01*
X94244010Y-73136589D01*
X94132068Y-73406842D01*
X94075000Y-73693740D01*
X94075000Y-73986260D01*
X94132068Y-74273158D01*
X94244010Y-74543411D01*
X94406525Y-74786632D01*
X94613368Y-74993475D01*
X94787760Y-75110000D01*
X94613368Y-75226525D01*
X94406525Y-75433368D01*
X94244010Y-75676589D01*
X94132068Y-75946842D01*
X94075000Y-76233740D01*
X94075000Y-76526260D01*
X94132068Y-76813158D01*
X94244010Y-77083411D01*
X94406525Y-77326632D01*
X94613368Y-77533475D01*
X94787760Y-77650000D01*
X94613368Y-77766525D01*
X94406525Y-77973368D01*
X94244010Y-78216589D01*
X94132068Y-78486842D01*
X94075000Y-78773740D01*
X94075000Y-79066260D01*
X94132068Y-79353158D01*
X94244010Y-79623411D01*
X94406525Y-79866632D01*
X94613368Y-80073475D01*
X94795534Y-80195195D01*
X94678645Y-80264822D01*
X94462412Y-80459731D01*
X94288359Y-80693080D01*
X94163175Y-80955901D01*
X94118524Y-81103110D01*
X94239845Y-81333000D01*
X95433000Y-81333000D01*
X95433000Y-81313000D01*
X95687000Y-81313000D01*
X95687000Y-81333000D01*
X95707000Y-81333000D01*
X95707000Y-81587000D01*
X95687000Y-81587000D01*
X95687000Y-81607000D01*
X95433000Y-81607000D01*
X95433000Y-81587000D01*
X94239845Y-81587000D01*
X94118524Y-81816890D01*
X94163175Y-81964099D01*
X94288359Y-82226920D01*
X94462412Y-82460269D01*
X94678645Y-82655178D01*
X94795534Y-82724805D01*
X94613368Y-82846525D01*
X94406525Y-83053368D01*
X94244010Y-83296589D01*
X94132068Y-83566842D01*
X94075000Y-83853740D01*
X94075000Y-84146260D01*
X94132068Y-84433158D01*
X94244010Y-84703411D01*
X94406525Y-84946632D01*
X94613368Y-85153475D01*
X94787760Y-85270000D01*
X94613368Y-85386525D01*
X94406525Y-85593368D01*
X94244010Y-85836589D01*
X94132068Y-86106842D01*
X94075000Y-86393740D01*
X94075000Y-86686260D01*
X94118791Y-86906408D01*
X94010000Y-87015199D01*
X94010000Y-68795374D01*
X94684231Y-68795374D01*
X94984411Y-69233828D01*
X95563356Y-69544296D01*
X96191746Y-69735852D01*
X96845431Y-69801134D01*
X97499293Y-69737634D01*
X98128203Y-69547792D01*
X98707992Y-69238904D01*
X98715589Y-69233828D01*
X99015769Y-68795374D01*
X96850000Y-66629605D01*
X94684231Y-68795374D01*
X94010000Y-68795374D01*
X94010000Y-68212084D01*
X94061096Y-68307992D01*
X94066172Y-68315589D01*
X94504626Y-68615769D01*
X96670395Y-66450000D01*
X97029605Y-66450000D01*
X99195374Y-68615769D01*
X99633828Y-68315589D01*
X99944296Y-67736644D01*
X100135852Y-67108254D01*
X100201134Y-66454569D01*
X100200247Y-66445431D01*
X101598866Y-66445431D01*
X101662366Y-67099293D01*
X101852208Y-67728203D01*
X102161096Y-68307992D01*
X102166172Y-68315589D01*
X102604626Y-68615769D01*
X104770395Y-66450000D01*
X105129605Y-66450000D01*
X107295374Y-68615769D01*
X107733828Y-68315589D01*
X108044296Y-67736644D01*
X108235852Y-67108254D01*
X108301134Y-66454569D01*
X108300247Y-66445431D01*
X109698866Y-66445431D01*
X109762366Y-67099293D01*
X109952208Y-67728203D01*
X110261096Y-68307992D01*
X110266172Y-68315589D01*
X110704626Y-68615769D01*
X112870395Y-66450000D01*
X110704626Y-64284231D01*
X110266172Y-64584411D01*
X109955704Y-65163356D01*
X109764148Y-65791746D01*
X109698866Y-66445431D01*
X108300247Y-66445431D01*
X108237634Y-65800707D01*
X108047792Y-65171797D01*
X107738904Y-64592008D01*
X107733828Y-64584411D01*
X107295374Y-64284231D01*
X105129605Y-66450000D01*
X104770395Y-66450000D01*
X102604626Y-64284231D01*
X102166172Y-64584411D01*
X101855704Y-65163356D01*
X101664148Y-65791746D01*
X101598866Y-66445431D01*
X100200247Y-66445431D01*
X100137634Y-65800707D01*
X99947792Y-65171797D01*
X99638904Y-64592008D01*
X99633828Y-64584411D01*
X99195374Y-64284231D01*
X97029605Y-66450000D01*
X96670395Y-66450000D01*
X96656253Y-66435858D01*
X96835858Y-66256253D01*
X96850000Y-66270395D01*
X99015769Y-64104626D01*
X98715589Y-63666172D01*
X98610842Y-63610000D01*
X103187916Y-63610000D01*
X103092008Y-63661096D01*
G36*
X99889992Y-98864812D02*
G01*
X99889991Y-116985671D01*
X99886315Y-117022993D01*
X99889991Y-117060315D01*
X99889991Y-117060325D01*
X99900988Y-117171978D01*
X99924963Y-117251014D01*
X99944445Y-117315239D01*
X100015017Y-117447269D01*
X100045185Y-117484028D01*
X100109990Y-117562994D01*
X100138993Y-117586797D01*
X101188200Y-118636004D01*
X101211998Y-118665002D01*
X101327723Y-118759975D01*
X101459752Y-118830547D01*
X101603013Y-118874004D01*
X101714666Y-118885001D01*
X101714674Y-118885001D01*
X101751999Y-118888677D01*
X101789324Y-118885001D01*
X102344576Y-118885001D01*
X102263175Y-119055901D01*
X102218524Y-119203110D01*
X102339845Y-119433000D01*
X103533000Y-119433000D01*
X103533000Y-119413000D01*
X103787000Y-119413000D01*
X103787000Y-119433000D01*
X103807000Y-119433000D01*
X103807000Y-119687000D01*
X103787000Y-119687000D01*
X103787000Y-119707000D01*
X103533000Y-119707000D01*
X103533000Y-119687000D01*
X102339845Y-119687000D01*
X102218524Y-119916890D01*
X102236150Y-119975001D01*
X99531544Y-119975001D01*
X99585000Y-119706260D01*
X99585000Y-119413740D01*
X99527932Y-119126842D01*
X99415990Y-118856589D01*
X99253475Y-118613368D01*
X99046632Y-118406525D01*
X98872240Y-118290000D01*
X99046632Y-118173475D01*
X99253475Y-117966632D01*
X99415990Y-117723411D01*
X99527932Y-117453158D01*
X99585000Y-117166260D01*
X99585000Y-116873740D01*
X99527932Y-116586842D01*
X99415990Y-116316589D01*
X99253475Y-116073368D01*
X99046632Y-115866525D01*
X98872240Y-115750000D01*
X99046632Y-115633475D01*
X99253475Y-115426632D01*
X99415990Y-115183411D01*
X99527932Y-114913158D01*
X99585000Y-114626260D01*
X99585000Y-114333740D01*
X99527932Y-114046842D01*
X99415990Y-113776589D01*
X99253475Y-113533368D01*
X99046632Y-113326525D01*
X98864466Y-113204805D01*
X98981355Y-113135178D01*
X99197588Y-112940269D01*
X99371641Y-112706920D01*
X99496825Y-112444099D01*
X99541476Y-112296890D01*
X99420155Y-112067000D01*
X98227000Y-112067000D01*
X98227000Y-112087000D01*
X97973000Y-112087000D01*
X97973000Y-112067000D01*
X97953000Y-112067000D01*
X97953000Y-111813000D01*
X97973000Y-111813000D01*
X97973000Y-111793000D01*
X98227000Y-111793000D01*
X98227000Y-111813000D01*
X99420155Y-111813000D01*
X99541476Y-111583110D01*
X99496825Y-111435901D01*
X99371641Y-111173080D01*
X99197588Y-110939731D01*
X98981355Y-110744822D01*
X98864466Y-110675195D01*
X99046632Y-110553475D01*
X99253475Y-110346632D01*
X99415990Y-110103411D01*
X99527932Y-109833158D01*
X99585000Y-109546260D01*
X99585000Y-109253740D01*
X99527932Y-108966842D01*
X99415990Y-108696589D01*
X99253475Y-108453368D01*
X99046632Y-108246525D01*
X98864466Y-108124805D01*
X98981355Y-108055178D01*
X99197588Y-107860269D01*
X99371641Y-107626920D01*
X99496825Y-107364099D01*
X99541476Y-107216890D01*
X99420155Y-106987000D01*
X98227000Y-106987000D01*
X98227000Y-107007000D01*
X97973000Y-107007000D01*
X97973000Y-106987000D01*
X97953000Y-106987000D01*
X97953000Y-106733000D01*
X97973000Y-106733000D01*
X97973000Y-106713000D01*
X98227000Y-106713000D01*
X98227000Y-106733000D01*
X99420155Y-106733000D01*
X99541476Y-106503110D01*
X99496825Y-106355901D01*
X99371641Y-106093080D01*
X99197588Y-105859731D01*
X98981355Y-105664822D01*
X98864466Y-105595195D01*
X99046632Y-105473475D01*
X99253475Y-105266632D01*
X99415990Y-105023411D01*
X99527932Y-104753158D01*
X99585000Y-104466260D01*
X99585000Y-104173740D01*
X99527932Y-103886842D01*
X99415990Y-103616589D01*
X99253475Y-103373368D01*
X99046632Y-103166525D01*
X98872240Y-103050000D01*
X99046632Y-102933475D01*
X99253475Y-102726632D01*
X99415990Y-102483411D01*
X99527932Y-102213158D01*
X99585000Y-101926260D01*
X99585000Y-101633740D01*
X99527932Y-101346842D01*
X99415990Y-101076589D01*
X99253475Y-100833368D01*
X99046632Y-100626525D01*
X98872240Y-100510000D01*
X99046632Y-100393475D01*
X99253475Y-100186632D01*
X99415990Y-99943411D01*
X99527932Y-99673158D01*
X99585000Y-99386260D01*
X99585000Y-99093740D01*
X99527932Y-98806842D01*
X99415990Y-98536589D01*
X99253475Y-98293368D01*
X99046632Y-98086525D01*
X98872240Y-97970000D01*
X98945938Y-97920757D01*
X99889992Y-98864812D01*
G37*
X99889992Y-98864812D02*
X99889991Y-116985671D01*
X99886315Y-117022993D01*
X99889991Y-117060315D01*
X99889991Y-117060325D01*
X99900988Y-117171978D01*
X99924963Y-117251014D01*
X99944445Y-117315239D01*
X100015017Y-117447269D01*
X100045185Y-117484028D01*
X100109990Y-117562994D01*
X100138993Y-117586797D01*
X101188200Y-118636004D01*
X101211998Y-118665002D01*
X101327723Y-118759975D01*
X101459752Y-118830547D01*
X101603013Y-118874004D01*
X101714666Y-118885001D01*
X101714674Y-118885001D01*
X101751999Y-118888677D01*
X101789324Y-118885001D01*
X102344576Y-118885001D01*
X102263175Y-119055901D01*
X102218524Y-119203110D01*
X102339845Y-119433000D01*
X103533000Y-119433000D01*
X103533000Y-119413000D01*
X103787000Y-119413000D01*
X103787000Y-119433000D01*
X103807000Y-119433000D01*
X103807000Y-119687000D01*
X103787000Y-119687000D01*
X103787000Y-119707000D01*
X103533000Y-119707000D01*
X103533000Y-119687000D01*
X102339845Y-119687000D01*
X102218524Y-119916890D01*
X102236150Y-119975001D01*
X99531544Y-119975001D01*
X99585000Y-119706260D01*
X99585000Y-119413740D01*
X99527932Y-119126842D01*
X99415990Y-118856589D01*
X99253475Y-118613368D01*
X99046632Y-118406525D01*
X98872240Y-118290000D01*
X99046632Y-118173475D01*
X99253475Y-117966632D01*
X99415990Y-117723411D01*
X99527932Y-117453158D01*
X99585000Y-117166260D01*
X99585000Y-116873740D01*
X99527932Y-116586842D01*
X99415990Y-116316589D01*
X99253475Y-116073368D01*
X99046632Y-115866525D01*
X98872240Y-115750000D01*
X99046632Y-115633475D01*
X99253475Y-115426632D01*
X99415990Y-115183411D01*
X99527932Y-114913158D01*
X99585000Y-114626260D01*
X99585000Y-114333740D01*
X99527932Y-114046842D01*
X99415990Y-113776589D01*
X99253475Y-113533368D01*
X99046632Y-113326525D01*
X98864466Y-113204805D01*
X98981355Y-113135178D01*
X99197588Y-112940269D01*
X99371641Y-112706920D01*
X99496825Y-112444099D01*
X99541476Y-112296890D01*
X99420155Y-112067000D01*
X98227000Y-112067000D01*
X98227000Y-112087000D01*
X97973000Y-112087000D01*
X97973000Y-112067000D01*
X97953000Y-112067000D01*
X97953000Y-111813000D01*
X97973000Y-111813000D01*
X97973000Y-111793000D01*
X98227000Y-111793000D01*
X98227000Y-111813000D01*
X99420155Y-111813000D01*
X99541476Y-111583110D01*
X99496825Y-111435901D01*
X99371641Y-111173080D01*
X99197588Y-110939731D01*
X98981355Y-110744822D01*
X98864466Y-110675195D01*
X99046632Y-110553475D01*
X99253475Y-110346632D01*
X99415990Y-110103411D01*
X99527932Y-109833158D01*
X99585000Y-109546260D01*
X99585000Y-109253740D01*
X99527932Y-108966842D01*
X99415990Y-108696589D01*
X99253475Y-108453368D01*
X99046632Y-108246525D01*
X98864466Y-108124805D01*
X98981355Y-108055178D01*
X99197588Y-107860269D01*
X99371641Y-107626920D01*
X99496825Y-107364099D01*
X99541476Y-107216890D01*
X99420155Y-106987000D01*
X98227000Y-106987000D01*
X98227000Y-107007000D01*
X97973000Y-107007000D01*
X97973000Y-106987000D01*
X97953000Y-106987000D01*
X97953000Y-106733000D01*
X97973000Y-106733000D01*
X97973000Y-106713000D01*
X98227000Y-106713000D01*
X98227000Y-106733000D01*
X99420155Y-106733000D01*
X99541476Y-106503110D01*
X99496825Y-106355901D01*
X99371641Y-106093080D01*
X99197588Y-105859731D01*
X98981355Y-105664822D01*
X98864466Y-105595195D01*
X99046632Y-105473475D01*
X99253475Y-105266632D01*
X99415990Y-105023411D01*
X99527932Y-104753158D01*
X99585000Y-104466260D01*
X99585000Y-104173740D01*
X99527932Y-103886842D01*
X99415990Y-103616589D01*
X99253475Y-103373368D01*
X99046632Y-103166525D01*
X98872240Y-103050000D01*
X99046632Y-102933475D01*
X99253475Y-102726632D01*
X99415990Y-102483411D01*
X99527932Y-102213158D01*
X99585000Y-101926260D01*
X99585000Y-101633740D01*
X99527932Y-101346842D01*
X99415990Y-101076589D01*
X99253475Y-100833368D01*
X99046632Y-100626525D01*
X98872240Y-100510000D01*
X99046632Y-100393475D01*
X99253475Y-100186632D01*
X99415990Y-99943411D01*
X99527932Y-99673158D01*
X99585000Y-99386260D01*
X99585000Y-99093740D01*
X99527932Y-98806842D01*
X99415990Y-98536589D01*
X99253475Y-98293368D01*
X99046632Y-98086525D01*
X98872240Y-97970000D01*
X98945938Y-97920757D01*
X99889992Y-98864812D01*
G36*
X110318791Y-114113592D02*
G01*
X110275000Y-114333740D01*
X110275000Y-114626260D01*
X110332068Y-114913158D01*
X110444010Y-115183411D01*
X110606525Y-115426632D01*
X110813368Y-115633475D01*
X110987760Y-115750000D01*
X110813368Y-115866525D01*
X110606525Y-116073368D01*
X110444010Y-116316589D01*
X110332068Y-116586842D01*
X110275000Y-116873740D01*
X110275000Y-117166260D01*
X110318791Y-117386408D01*
X109870593Y-117834606D01*
X109841595Y-117858404D01*
X109817797Y-117887402D01*
X109817796Y-117887403D01*
X109746621Y-117974129D01*
X109676049Y-118106159D01*
X109670637Y-118124002D01*
X109632592Y-118249419D01*
X109621595Y-118361072D01*
X109621595Y-118361083D01*
X109617919Y-118398405D01*
X109618955Y-118408928D01*
X109577658Y-118450225D01*
X109464390Y-118619743D01*
X109386369Y-118808101D01*
X109346595Y-119008060D01*
X109346595Y-119211938D01*
X109386369Y-119411897D01*
X109464390Y-119600255D01*
X109577658Y-119769773D01*
X109721821Y-119913936D01*
X109813211Y-119975001D01*
X107689803Y-119975001D01*
X107641210Y-119926408D01*
X107685000Y-119706260D01*
X107685000Y-119413740D01*
X107627932Y-119126842D01*
X107515990Y-118856589D01*
X107353475Y-118613368D01*
X107146632Y-118406525D01*
X106972240Y-118290000D01*
X107146632Y-118173475D01*
X107353475Y-117966632D01*
X107515990Y-117723411D01*
X107627932Y-117453158D01*
X107685000Y-117166260D01*
X107685000Y-116873740D01*
X107627932Y-116586842D01*
X107515990Y-116316589D01*
X107353475Y-116073368D01*
X107146632Y-115866525D01*
X106972240Y-115750000D01*
X107146632Y-115633475D01*
X107353475Y-115426632D01*
X107515990Y-115183411D01*
X107627932Y-114913158D01*
X107685000Y-114626260D01*
X107685000Y-114333740D01*
X107631544Y-114064999D01*
X110270198Y-114064999D01*
X110318791Y-114113592D01*
G37*
X110318791Y-114113592D02*
X110275000Y-114333740D01*
X110275000Y-114626260D01*
X110332068Y-114913158D01*
X110444010Y-115183411D01*
X110606525Y-115426632D01*
X110813368Y-115633475D01*
X110987760Y-115750000D01*
X110813368Y-115866525D01*
X110606525Y-116073368D01*
X110444010Y-116316589D01*
X110332068Y-116586842D01*
X110275000Y-116873740D01*
X110275000Y-117166260D01*
X110318791Y-117386408D01*
X109870593Y-117834606D01*
X109841595Y-117858404D01*
X109817797Y-117887402D01*
X109817796Y-117887403D01*
X109746621Y-117974129D01*
X109676049Y-118106159D01*
X109670637Y-118124002D01*
X109632592Y-118249419D01*
X109621595Y-118361072D01*
X109621595Y-118361083D01*
X109617919Y-118398405D01*
X109618955Y-118408928D01*
X109577658Y-118450225D01*
X109464390Y-118619743D01*
X109386369Y-118808101D01*
X109346595Y-119008060D01*
X109346595Y-119211938D01*
X109386369Y-119411897D01*
X109464390Y-119600255D01*
X109577658Y-119769773D01*
X109721821Y-119913936D01*
X109813211Y-119975001D01*
X107689803Y-119975001D01*
X107641210Y-119926408D01*
X107685000Y-119706260D01*
X107685000Y-119413740D01*
X107627932Y-119126842D01*
X107515990Y-118856589D01*
X107353475Y-118613368D01*
X107146632Y-118406525D01*
X106972240Y-118290000D01*
X107146632Y-118173475D01*
X107353475Y-117966632D01*
X107515990Y-117723411D01*
X107627932Y-117453158D01*
X107685000Y-117166260D01*
X107685000Y-116873740D01*
X107627932Y-116586842D01*
X107515990Y-116316589D01*
X107353475Y-116073368D01*
X107146632Y-115866525D01*
X106972240Y-115750000D01*
X107146632Y-115633475D01*
X107353475Y-115426632D01*
X107515990Y-115183411D01*
X107627932Y-114913158D01*
X107685000Y-114626260D01*
X107685000Y-114333740D01*
X107631544Y-114064999D01*
X110270198Y-114064999D01*
X110318791Y-114113592D01*
G36*
X111887000Y-119433000D02*
G01*
X111907000Y-119433000D01*
X111907000Y-119687000D01*
X111887000Y-119687000D01*
X111887000Y-119707000D01*
X111633000Y-119707000D01*
X111633000Y-119687000D01*
X111613000Y-119687000D01*
X111613000Y-119433000D01*
X111633000Y-119433000D01*
X111633000Y-119413000D01*
X111887000Y-119413000D01*
X111887000Y-119433000D01*
G37*
X111887000Y-119433000D02*
X111907000Y-119433000D01*
X111907000Y-119687000D01*
X111887000Y-119687000D01*
X111887000Y-119707000D01*
X111633000Y-119707000D01*
X111633000Y-119687000D01*
X111613000Y-119687000D01*
X111613000Y-119433000D01*
X111633000Y-119433000D01*
X111633000Y-119413000D01*
X111887000Y-119413000D01*
X111887000Y-119433000D01*
G36*
X95687000Y-119433000D02*
G01*
X95707000Y-119433000D01*
X95707000Y-119687000D01*
X95687000Y-119687000D01*
X95687000Y-119707000D01*
X95433000Y-119707000D01*
X95433000Y-119687000D01*
X95413000Y-119687000D01*
X95413000Y-119433000D01*
X95433000Y-119433000D01*
X95433000Y-119413000D01*
X95687000Y-119413000D01*
X95687000Y-119433000D01*
G37*
X95687000Y-119433000D02*
X95707000Y-119433000D01*
X95707000Y-119687000D01*
X95687000Y-119687000D01*
X95687000Y-119707000D01*
X95433000Y-119707000D01*
X95433000Y-119687000D01*
X95413000Y-119687000D01*
X95413000Y-119433000D01*
X95433000Y-119433000D01*
X95433000Y-119413000D01*
X95687000Y-119413000D01*
X95687000Y-119433000D01*
G36*
X110318524Y-101423110D02*
G01*
X110439845Y-101653000D01*
X111633000Y-101653000D01*
X111633000Y-101633000D01*
X111887000Y-101633000D01*
X111887000Y-101653000D01*
X111907000Y-101653000D01*
X111907000Y-101907000D01*
X111887000Y-101907000D01*
X111887000Y-101927000D01*
X111633000Y-101927000D01*
X111633000Y-101907000D01*
X110439845Y-101907000D01*
X110318524Y-102136890D01*
X110363175Y-102284099D01*
X110488359Y-102546920D01*
X110662412Y-102780269D01*
X110878645Y-102975178D01*
X110995534Y-103044805D01*
X110813368Y-103166525D01*
X110606525Y-103373368D01*
X110444010Y-103616589D01*
X110332068Y-103886842D01*
X110275000Y-104173740D01*
X110275000Y-104466260D01*
X110332068Y-104753158D01*
X110444010Y-105023411D01*
X110606525Y-105266632D01*
X110813368Y-105473475D01*
X110987760Y-105590000D01*
X110813368Y-105706525D01*
X110606525Y-105913368D01*
X110444010Y-106156589D01*
X110332068Y-106426842D01*
X110275000Y-106713740D01*
X110275000Y-107006260D01*
X110332068Y-107293158D01*
X110444010Y-107563411D01*
X110606525Y-107806632D01*
X110813368Y-108013475D01*
X110987760Y-108130000D01*
X110813368Y-108246525D01*
X110606525Y-108453368D01*
X110444010Y-108696589D01*
X110332068Y-108966842D01*
X110275000Y-109253740D01*
X110275000Y-109546260D01*
X110332068Y-109833158D01*
X110444010Y-110103411D01*
X110606525Y-110346632D01*
X110813368Y-110553475D01*
X110987760Y-110670000D01*
X110813368Y-110786525D01*
X110606525Y-110993368D01*
X110444010Y-111236589D01*
X110332068Y-111506842D01*
X110275000Y-111793740D01*
X110275000Y-112086260D01*
X110332068Y-112373158D01*
X110403247Y-112544999D01*
X107548765Y-112544999D01*
X107596825Y-112444099D01*
X107641476Y-112296890D01*
X107520155Y-112067000D01*
X106327000Y-112067000D01*
X106327000Y-112087000D01*
X106073000Y-112087000D01*
X106073000Y-112067000D01*
X106053000Y-112067000D01*
X106053000Y-111813000D01*
X106073000Y-111813000D01*
X106073000Y-111793000D01*
X106327000Y-111793000D01*
X106327000Y-111813000D01*
X107520155Y-111813000D01*
X107641476Y-111583110D01*
X107596825Y-111435901D01*
X107471641Y-111173080D01*
X107297588Y-110939731D01*
X107081355Y-110744822D01*
X106964466Y-110675195D01*
X107146632Y-110553475D01*
X107353475Y-110346632D01*
X107515990Y-110103411D01*
X107627932Y-109833158D01*
X107685000Y-109546260D01*
X107685000Y-109253740D01*
X107627932Y-108966842D01*
X107515990Y-108696589D01*
X107353475Y-108453368D01*
X107146632Y-108246525D01*
X106964466Y-108124805D01*
X107081355Y-108055178D01*
X107297588Y-107860269D01*
X107471641Y-107626920D01*
X107596825Y-107364099D01*
X107641476Y-107216890D01*
X107520155Y-106987000D01*
X106327000Y-106987000D01*
X106327000Y-107007000D01*
X106073000Y-107007000D01*
X106073000Y-106987000D01*
X106053000Y-106987000D01*
X106053000Y-106733000D01*
X106073000Y-106733000D01*
X106073000Y-106713000D01*
X106327000Y-106713000D01*
X106327000Y-106733000D01*
X107520155Y-106733000D01*
X107641476Y-106503110D01*
X107596825Y-106355901D01*
X107471641Y-106093080D01*
X107297588Y-105859731D01*
X107081355Y-105664822D01*
X106964466Y-105595195D01*
X107146632Y-105473475D01*
X107353475Y-105266632D01*
X107515990Y-105023411D01*
X107627932Y-104753158D01*
X107685000Y-104466260D01*
X107685000Y-104173740D01*
X107627932Y-103886842D01*
X107515990Y-103616589D01*
X107353475Y-103373368D01*
X107146632Y-103166525D01*
X106972240Y-103050000D01*
X107146632Y-102933475D01*
X107353475Y-102726632D01*
X107515990Y-102483411D01*
X107627932Y-102213158D01*
X107685000Y-101926260D01*
X107685000Y-101633740D01*
X107631544Y-101364999D01*
X110336150Y-101364999D01*
X110318524Y-101423110D01*
G37*
X110318524Y-101423110D02*
X110439845Y-101653000D01*
X111633000Y-101653000D01*
X111633000Y-101633000D01*
X111887000Y-101633000D01*
X111887000Y-101653000D01*
X111907000Y-101653000D01*
X111907000Y-101907000D01*
X111887000Y-101907000D01*
X111887000Y-101927000D01*
X111633000Y-101927000D01*
X111633000Y-101907000D01*
X110439845Y-101907000D01*
X110318524Y-102136890D01*
X110363175Y-102284099D01*
X110488359Y-102546920D01*
X110662412Y-102780269D01*
X110878645Y-102975178D01*
X110995534Y-103044805D01*
X110813368Y-103166525D01*
X110606525Y-103373368D01*
X110444010Y-103616589D01*
X110332068Y-103886842D01*
X110275000Y-104173740D01*
X110275000Y-104466260D01*
X110332068Y-104753158D01*
X110444010Y-105023411D01*
X110606525Y-105266632D01*
X110813368Y-105473475D01*
X110987760Y-105590000D01*
X110813368Y-105706525D01*
X110606525Y-105913368D01*
X110444010Y-106156589D01*
X110332068Y-106426842D01*
X110275000Y-106713740D01*
X110275000Y-107006260D01*
X110332068Y-107293158D01*
X110444010Y-107563411D01*
X110606525Y-107806632D01*
X110813368Y-108013475D01*
X110987760Y-108130000D01*
X110813368Y-108246525D01*
X110606525Y-108453368D01*
X110444010Y-108696589D01*
X110332068Y-108966842D01*
X110275000Y-109253740D01*
X110275000Y-109546260D01*
X110332068Y-109833158D01*
X110444010Y-110103411D01*
X110606525Y-110346632D01*
X110813368Y-110553475D01*
X110987760Y-110670000D01*
X110813368Y-110786525D01*
X110606525Y-110993368D01*
X110444010Y-111236589D01*
X110332068Y-111506842D01*
X110275000Y-111793740D01*
X110275000Y-112086260D01*
X110332068Y-112373158D01*
X110403247Y-112544999D01*
X107548765Y-112544999D01*
X107596825Y-112444099D01*
X107641476Y-112296890D01*
X107520155Y-112067000D01*
X106327000Y-112067000D01*
X106327000Y-112087000D01*
X106073000Y-112087000D01*
X106073000Y-112067000D01*
X106053000Y-112067000D01*
X106053000Y-111813000D01*
X106073000Y-111813000D01*
X106073000Y-111793000D01*
X106327000Y-111793000D01*
X106327000Y-111813000D01*
X107520155Y-111813000D01*
X107641476Y-111583110D01*
X107596825Y-111435901D01*
X107471641Y-111173080D01*
X107297588Y-110939731D01*
X107081355Y-110744822D01*
X106964466Y-110675195D01*
X107146632Y-110553475D01*
X107353475Y-110346632D01*
X107515990Y-110103411D01*
X107627932Y-109833158D01*
X107685000Y-109546260D01*
X107685000Y-109253740D01*
X107627932Y-108966842D01*
X107515990Y-108696589D01*
X107353475Y-108453368D01*
X107146632Y-108246525D01*
X106964466Y-108124805D01*
X107081355Y-108055178D01*
X107297588Y-107860269D01*
X107471641Y-107626920D01*
X107596825Y-107364099D01*
X107641476Y-107216890D01*
X107520155Y-106987000D01*
X106327000Y-106987000D01*
X106327000Y-107007000D01*
X106073000Y-107007000D01*
X106073000Y-106987000D01*
X106053000Y-106987000D01*
X106053000Y-106733000D01*
X106073000Y-106733000D01*
X106073000Y-106713000D01*
X106327000Y-106713000D01*
X106327000Y-106733000D01*
X107520155Y-106733000D01*
X107641476Y-106503110D01*
X107596825Y-106355901D01*
X107471641Y-106093080D01*
X107297588Y-105859731D01*
X107081355Y-105664822D01*
X106964466Y-105595195D01*
X107146632Y-105473475D01*
X107353475Y-105266632D01*
X107515990Y-105023411D01*
X107627932Y-104753158D01*
X107685000Y-104466260D01*
X107685000Y-104173740D01*
X107627932Y-103886842D01*
X107515990Y-103616589D01*
X107353475Y-103373368D01*
X107146632Y-103166525D01*
X106972240Y-103050000D01*
X107146632Y-102933475D01*
X107353475Y-102726632D01*
X107515990Y-102483411D01*
X107627932Y-102213158D01*
X107685000Y-101926260D01*
X107685000Y-101633740D01*
X107631544Y-101364999D01*
X110336150Y-101364999D01*
X110318524Y-101423110D01*
G36*
X103787000Y-101653000D02*
G01*
X103807000Y-101653000D01*
X103807000Y-101907000D01*
X103787000Y-101907000D01*
X103787000Y-101927000D01*
X103533000Y-101927000D01*
X103533000Y-101907000D01*
X103513000Y-101907000D01*
X103513000Y-101653000D01*
X103533000Y-101653000D01*
X103533000Y-101633000D01*
X103787000Y-101633000D01*
X103787000Y-101653000D01*
G37*
X103787000Y-101653000D02*
X103807000Y-101653000D01*
X103807000Y-101907000D01*
X103787000Y-101907000D01*
X103787000Y-101927000D01*
X103533000Y-101927000D01*
X103533000Y-101907000D01*
X103513000Y-101907000D01*
X103513000Y-101653000D01*
X103533000Y-101653000D01*
X103533000Y-101633000D01*
X103787000Y-101633000D01*
X103787000Y-101653000D01*
G36*
X95687000Y-101653000D02*
G01*
X95707000Y-101653000D01*
X95707000Y-101907000D01*
X95687000Y-101907000D01*
X95687000Y-101927000D01*
X95433000Y-101927000D01*
X95433000Y-101907000D01*
X95413000Y-101907000D01*
X95413000Y-101653000D01*
X95433000Y-101653000D01*
X95433000Y-101633000D01*
X95687000Y-101633000D01*
X95687000Y-101653000D01*
G37*
X95687000Y-101653000D02*
X95707000Y-101653000D01*
X95707000Y-101907000D01*
X95687000Y-101907000D01*
X95687000Y-101927000D01*
X95433000Y-101927000D01*
X95433000Y-101907000D01*
X95413000Y-101907000D01*
X95413000Y-101653000D01*
X95433000Y-101653000D01*
X95433000Y-101633000D01*
X95687000Y-101633000D01*
X95687000Y-101653000D01*
G36*
X110318791Y-86173592D02*
G01*
X110275000Y-86393740D01*
X110275000Y-86686260D01*
X110332068Y-86973158D01*
X110444010Y-87243411D01*
X110606525Y-87486632D01*
X110813368Y-87693475D01*
X110987760Y-87810000D01*
X110813368Y-87926525D01*
X110606525Y-88133368D01*
X110444010Y-88376589D01*
X110332068Y-88646842D01*
X110275000Y-88933740D01*
X110275000Y-89226260D01*
X110332068Y-89513158D01*
X110444010Y-89783411D01*
X110606525Y-90026632D01*
X110813368Y-90233475D01*
X110987760Y-90350000D01*
X110813368Y-90466525D01*
X110606525Y-90673368D01*
X110444010Y-90916589D01*
X110332068Y-91186842D01*
X110275000Y-91473740D01*
X110275000Y-91766260D01*
X110332068Y-92053158D01*
X110444010Y-92323411D01*
X110606525Y-92566632D01*
X110813368Y-92773475D01*
X110987760Y-92890000D01*
X110813368Y-93006525D01*
X110606525Y-93213368D01*
X110444010Y-93456589D01*
X110332068Y-93726842D01*
X110275000Y-94013740D01*
X110275000Y-94306260D01*
X110332068Y-94593158D01*
X110444010Y-94863411D01*
X110606525Y-95106632D01*
X110813368Y-95313475D01*
X110987760Y-95430000D01*
X110813368Y-95546525D01*
X110606525Y-95753368D01*
X110444010Y-95996589D01*
X110332068Y-96266842D01*
X110275000Y-96553740D01*
X110275000Y-96846260D01*
X110332068Y-97133158D01*
X110444010Y-97403411D01*
X110606525Y-97646632D01*
X110813368Y-97853475D01*
X110987760Y-97970000D01*
X110813368Y-98086525D01*
X110606525Y-98293368D01*
X110444010Y-98536589D01*
X110332068Y-98806842D01*
X110275000Y-99093740D01*
X110275000Y-99386260D01*
X110332068Y-99673158D01*
X110403247Y-99844999D01*
X107556753Y-99844999D01*
X107627932Y-99673158D01*
X107685000Y-99386260D01*
X107685000Y-99093740D01*
X107627932Y-98806842D01*
X107515990Y-98536589D01*
X107380296Y-98333508D01*
X107886009Y-97827796D01*
X107915002Y-97804002D01*
X107938796Y-97775009D01*
X107938800Y-97775005D01*
X108009974Y-97688278D01*
X108009975Y-97688277D01*
X108080547Y-97556248D01*
X108124004Y-97412987D01*
X108135001Y-97301334D01*
X108135001Y-97301325D01*
X108138677Y-97264002D01*
X108135001Y-97226679D01*
X108135001Y-91093321D01*
X108138677Y-91055998D01*
X108135001Y-91018675D01*
X108135001Y-91018666D01*
X108124004Y-90907013D01*
X108080547Y-90763752D01*
X108009975Y-90631723D01*
X107996812Y-90615684D01*
X107938800Y-90544995D01*
X107938796Y-90544991D01*
X107915002Y-90515998D01*
X107886010Y-90492205D01*
X107380296Y-89986492D01*
X107515990Y-89783411D01*
X107627932Y-89513158D01*
X107685000Y-89226260D01*
X107685000Y-88933740D01*
X107627932Y-88646842D01*
X107515990Y-88376589D01*
X107353475Y-88133368D01*
X107146632Y-87926525D01*
X106964466Y-87804805D01*
X107081355Y-87735178D01*
X107297588Y-87540269D01*
X107471641Y-87306920D01*
X107596825Y-87044099D01*
X107641476Y-86896890D01*
X107520155Y-86667000D01*
X106327000Y-86667000D01*
X106327000Y-86687000D01*
X106073000Y-86687000D01*
X106073000Y-86667000D01*
X106053000Y-86667000D01*
X106053000Y-86413000D01*
X106073000Y-86413000D01*
X106073000Y-86393000D01*
X106327000Y-86393000D01*
X106327000Y-86413000D01*
X107520155Y-86413000D01*
X107641476Y-86183110D01*
X107596825Y-86035901D01*
X107548765Y-85935001D01*
X110080200Y-85935001D01*
X110318791Y-86173592D01*
G37*
X110318791Y-86173592D02*
X110275000Y-86393740D01*
X110275000Y-86686260D01*
X110332068Y-86973158D01*
X110444010Y-87243411D01*
X110606525Y-87486632D01*
X110813368Y-87693475D01*
X110987760Y-87810000D01*
X110813368Y-87926525D01*
X110606525Y-88133368D01*
X110444010Y-88376589D01*
X110332068Y-88646842D01*
X110275000Y-88933740D01*
X110275000Y-89226260D01*
X110332068Y-89513158D01*
X110444010Y-89783411D01*
X110606525Y-90026632D01*
X110813368Y-90233475D01*
X110987760Y-90350000D01*
X110813368Y-90466525D01*
X110606525Y-90673368D01*
X110444010Y-90916589D01*
X110332068Y-91186842D01*
X110275000Y-91473740D01*
X110275000Y-91766260D01*
X110332068Y-92053158D01*
X110444010Y-92323411D01*
X110606525Y-92566632D01*
X110813368Y-92773475D01*
X110987760Y-92890000D01*
X110813368Y-93006525D01*
X110606525Y-93213368D01*
X110444010Y-93456589D01*
X110332068Y-93726842D01*
X110275000Y-94013740D01*
X110275000Y-94306260D01*
X110332068Y-94593158D01*
X110444010Y-94863411D01*
X110606525Y-95106632D01*
X110813368Y-95313475D01*
X110987760Y-95430000D01*
X110813368Y-95546525D01*
X110606525Y-95753368D01*
X110444010Y-95996589D01*
X110332068Y-96266842D01*
X110275000Y-96553740D01*
X110275000Y-96846260D01*
X110332068Y-97133158D01*
X110444010Y-97403411D01*
X110606525Y-97646632D01*
X110813368Y-97853475D01*
X110987760Y-97970000D01*
X110813368Y-98086525D01*
X110606525Y-98293368D01*
X110444010Y-98536589D01*
X110332068Y-98806842D01*
X110275000Y-99093740D01*
X110275000Y-99386260D01*
X110332068Y-99673158D01*
X110403247Y-99844999D01*
X107556753Y-99844999D01*
X107627932Y-99673158D01*
X107685000Y-99386260D01*
X107685000Y-99093740D01*
X107627932Y-98806842D01*
X107515990Y-98536589D01*
X107380296Y-98333508D01*
X107886009Y-97827796D01*
X107915002Y-97804002D01*
X107938796Y-97775009D01*
X107938800Y-97775005D01*
X108009974Y-97688278D01*
X108009975Y-97688277D01*
X108080547Y-97556248D01*
X108124004Y-97412987D01*
X108135001Y-97301334D01*
X108135001Y-97301325D01*
X108138677Y-97264002D01*
X108135001Y-97226679D01*
X108135001Y-91093321D01*
X108138677Y-91055998D01*
X108135001Y-91018675D01*
X108135001Y-91018666D01*
X108124004Y-90907013D01*
X108080547Y-90763752D01*
X108009975Y-90631723D01*
X107996812Y-90615684D01*
X107938800Y-90544995D01*
X107938796Y-90544991D01*
X107915002Y-90515998D01*
X107886010Y-90492205D01*
X107380296Y-89986492D01*
X107515990Y-89783411D01*
X107627932Y-89513158D01*
X107685000Y-89226260D01*
X107685000Y-88933740D01*
X107627932Y-88646842D01*
X107515990Y-88376589D01*
X107353475Y-88133368D01*
X107146632Y-87926525D01*
X106964466Y-87804805D01*
X107081355Y-87735178D01*
X107297588Y-87540269D01*
X107471641Y-87306920D01*
X107596825Y-87044099D01*
X107641476Y-86896890D01*
X107520155Y-86667000D01*
X106327000Y-86667000D01*
X106327000Y-86687000D01*
X106073000Y-86687000D01*
X106073000Y-86667000D01*
X106053000Y-86667000D01*
X106053000Y-86413000D01*
X106073000Y-86413000D01*
X106073000Y-86393000D01*
X106327000Y-86393000D01*
X106327000Y-86413000D01*
X107520155Y-86413000D01*
X107641476Y-86183110D01*
X107596825Y-86035901D01*
X107548765Y-85935001D01*
X110080200Y-85935001D01*
X110318791Y-86173592D01*
G36*
X102175000Y-94013740D02*
G01*
X102175000Y-94306260D01*
X102232068Y-94593158D01*
X102344010Y-94863411D01*
X102506525Y-95106632D01*
X102713368Y-95313475D01*
X102887760Y-95430000D01*
X102713368Y-95546525D01*
X102506525Y-95753368D01*
X102344010Y-95996589D01*
X102232068Y-96266842D01*
X102175000Y-96553740D01*
X102175000Y-96846260D01*
X102232068Y-97133158D01*
X102344010Y-97403411D01*
X102479704Y-97606492D01*
X101409991Y-98676206D01*
X101409991Y-98587332D01*
X101413667Y-98550009D01*
X101409991Y-98512686D01*
X101409991Y-98512676D01*
X101398994Y-98401023D01*
X101355537Y-98257762D01*
X101284965Y-98125733D01*
X101189992Y-98010008D01*
X101160994Y-97986210D01*
X99549362Y-96374579D01*
X99527932Y-96266842D01*
X99415990Y-95996589D01*
X99253475Y-95753368D01*
X99046632Y-95546525D01*
X98864466Y-95424805D01*
X98981355Y-95355178D01*
X99197588Y-95160269D01*
X99371641Y-94926920D01*
X99496825Y-94664099D01*
X99541476Y-94516890D01*
X99420155Y-94287000D01*
X98227000Y-94287000D01*
X98227000Y-94307000D01*
X97973000Y-94307000D01*
X97973000Y-94287000D01*
X97953000Y-94287000D01*
X97953000Y-94033000D01*
X97973000Y-94033000D01*
X97973000Y-94013000D01*
X98227000Y-94013000D01*
X98227000Y-94033000D01*
X99420155Y-94033000D01*
X99541476Y-93803110D01*
X99523850Y-93744999D01*
X102228456Y-93744999D01*
X102175000Y-94013740D01*
G37*
X102175000Y-94013740D02*
X102175000Y-94306260D01*
X102232068Y-94593158D01*
X102344010Y-94863411D01*
X102506525Y-95106632D01*
X102713368Y-95313475D01*
X102887760Y-95430000D01*
X102713368Y-95546525D01*
X102506525Y-95753368D01*
X102344010Y-95996589D01*
X102232068Y-96266842D01*
X102175000Y-96553740D01*
X102175000Y-96846260D01*
X102232068Y-97133158D01*
X102344010Y-97403411D01*
X102479704Y-97606492D01*
X101409991Y-98676206D01*
X101409991Y-98587332D01*
X101413667Y-98550009D01*
X101409991Y-98512686D01*
X101409991Y-98512676D01*
X101398994Y-98401023D01*
X101355537Y-98257762D01*
X101284965Y-98125733D01*
X101189992Y-98010008D01*
X101160994Y-97986210D01*
X99549362Y-96374579D01*
X99527932Y-96266842D01*
X99415990Y-95996589D01*
X99253475Y-95753368D01*
X99046632Y-95546525D01*
X98864466Y-95424805D01*
X98981355Y-95355178D01*
X99197588Y-95160269D01*
X99371641Y-94926920D01*
X99496825Y-94664099D01*
X99541476Y-94516890D01*
X99420155Y-94287000D01*
X98227000Y-94287000D01*
X98227000Y-94307000D01*
X97973000Y-94307000D01*
X97973000Y-94287000D01*
X97953000Y-94287000D01*
X97953000Y-94033000D01*
X97973000Y-94033000D01*
X97973000Y-94013000D01*
X98227000Y-94013000D01*
X98227000Y-94033000D01*
X99420155Y-94033000D01*
X99541476Y-93803110D01*
X99523850Y-93744999D01*
X102228456Y-93744999D01*
X102175000Y-94013740D01*
G36*
X105102412Y-95160269D02*
G01*
X105318645Y-95355178D01*
X105435534Y-95424805D01*
X105253368Y-95546525D01*
X105046525Y-95753368D01*
X104930000Y-95927760D01*
X104813475Y-95753368D01*
X104606632Y-95546525D01*
X104432240Y-95430000D01*
X104606632Y-95313475D01*
X104813475Y-95106632D01*
X104931100Y-94930594D01*
X105102412Y-95160269D01*
G37*
X105102412Y-95160269D02*
X105318645Y-95355178D01*
X105435534Y-95424805D01*
X105253368Y-95546525D01*
X105046525Y-95753368D01*
X104930000Y-95927760D01*
X104813475Y-95753368D01*
X104606632Y-95546525D01*
X104432240Y-95430000D01*
X104606632Y-95313475D01*
X104813475Y-95106632D01*
X104931100Y-94930594D01*
X105102412Y-95160269D01*
G36*
X106327000Y-94033000D02*
G01*
X106347000Y-94033000D01*
X106347000Y-94287000D01*
X106327000Y-94287000D01*
X106327000Y-94307000D01*
X106073000Y-94307000D01*
X106073000Y-94287000D01*
X106053000Y-94287000D01*
X106053000Y-94033000D01*
X106073000Y-94033000D01*
X106073000Y-94013000D01*
X106327000Y-94013000D01*
X106327000Y-94033000D01*
G37*
X106327000Y-94033000D02*
X106347000Y-94033000D01*
X106347000Y-94287000D01*
X106327000Y-94287000D01*
X106327000Y-94307000D01*
X106073000Y-94307000D01*
X106073000Y-94287000D01*
X106053000Y-94287000D01*
X106053000Y-94033000D01*
X106073000Y-94033000D01*
X106073000Y-94013000D01*
X106327000Y-94013000D01*
X106327000Y-94033000D01*
G36*
X105046525Y-92566632D02*
G01*
X105253368Y-92773475D01*
X105435534Y-92895195D01*
X105318645Y-92964822D01*
X105102412Y-93159731D01*
X104931100Y-93389406D01*
X104813475Y-93213368D01*
X104606632Y-93006525D01*
X104432240Y-92890000D01*
X104606632Y-92773475D01*
X104813475Y-92566632D01*
X104930000Y-92392240D01*
X105046525Y-92566632D01*
G37*
X105046525Y-92566632D02*
X105253368Y-92773475D01*
X105435534Y-92895195D01*
X105318645Y-92964822D01*
X105102412Y-93159731D01*
X104931100Y-93389406D01*
X104813475Y-93213368D01*
X104606632Y-93006525D01*
X104432240Y-92890000D01*
X104606632Y-92773475D01*
X104813475Y-92566632D01*
X104930000Y-92392240D01*
X105046525Y-92566632D01*
G36*
X102232068Y-86106842D02*
G01*
X102175000Y-86393740D01*
X102175000Y-86686260D01*
X102232068Y-86973158D01*
X102344010Y-87243411D01*
X102506525Y-87486632D01*
X102713368Y-87693475D01*
X102887760Y-87810000D01*
X102713368Y-87926525D01*
X102506525Y-88133368D01*
X102344010Y-88376589D01*
X102232068Y-88646842D01*
X102175000Y-88933740D01*
X102175000Y-89226260D01*
X102232068Y-89513158D01*
X102344010Y-89783411D01*
X102506525Y-90026632D01*
X102713368Y-90233475D01*
X102887760Y-90350000D01*
X102713368Y-90466525D01*
X102506525Y-90673368D01*
X102344010Y-90916589D01*
X102232068Y-91186842D01*
X102175000Y-91473740D01*
X102175000Y-91766260D01*
X102218791Y-91986408D01*
X101980200Y-92224999D01*
X99456753Y-92224999D01*
X99527932Y-92053158D01*
X99585000Y-91766260D01*
X99585000Y-91473740D01*
X99527932Y-91186842D01*
X99415990Y-90916589D01*
X99253475Y-90673368D01*
X99046632Y-90466525D01*
X98872240Y-90350000D01*
X99046632Y-90233475D01*
X99253475Y-90026632D01*
X99415990Y-89783411D01*
X99527932Y-89513158D01*
X99585000Y-89226260D01*
X99585000Y-88933740D01*
X99527932Y-88646842D01*
X99415990Y-88376589D01*
X99253475Y-88133368D01*
X99046632Y-87926525D01*
X98864466Y-87804805D01*
X98981355Y-87735178D01*
X99197588Y-87540269D01*
X99371641Y-87306920D01*
X99496825Y-87044099D01*
X99541476Y-86896890D01*
X99420155Y-86667000D01*
X98227000Y-86667000D01*
X98227000Y-86687000D01*
X97973000Y-86687000D01*
X97973000Y-86667000D01*
X97953000Y-86667000D01*
X97953000Y-86413000D01*
X97973000Y-86413000D01*
X97973000Y-86393000D01*
X98227000Y-86393000D01*
X98227000Y-86413000D01*
X99420155Y-86413000D01*
X99541476Y-86183110D01*
X99496825Y-86035901D01*
X99448765Y-85935001D01*
X102303247Y-85935001D01*
X102232068Y-86106842D01*
G37*
X102232068Y-86106842D02*
X102175000Y-86393740D01*
X102175000Y-86686260D01*
X102232068Y-86973158D01*
X102344010Y-87243411D01*
X102506525Y-87486632D01*
X102713368Y-87693475D01*
X102887760Y-87810000D01*
X102713368Y-87926525D01*
X102506525Y-88133368D01*
X102344010Y-88376589D01*
X102232068Y-88646842D01*
X102175000Y-88933740D01*
X102175000Y-89226260D01*
X102232068Y-89513158D01*
X102344010Y-89783411D01*
X102506525Y-90026632D01*
X102713368Y-90233475D01*
X102887760Y-90350000D01*
X102713368Y-90466525D01*
X102506525Y-90673368D01*
X102344010Y-90916589D01*
X102232068Y-91186842D01*
X102175000Y-91473740D01*
X102175000Y-91766260D01*
X102218791Y-91986408D01*
X101980200Y-92224999D01*
X99456753Y-92224999D01*
X99527932Y-92053158D01*
X99585000Y-91766260D01*
X99585000Y-91473740D01*
X99527932Y-91186842D01*
X99415990Y-90916589D01*
X99253475Y-90673368D01*
X99046632Y-90466525D01*
X98872240Y-90350000D01*
X99046632Y-90233475D01*
X99253475Y-90026632D01*
X99415990Y-89783411D01*
X99527932Y-89513158D01*
X99585000Y-89226260D01*
X99585000Y-88933740D01*
X99527932Y-88646842D01*
X99415990Y-88376589D01*
X99253475Y-88133368D01*
X99046632Y-87926525D01*
X98864466Y-87804805D01*
X98981355Y-87735178D01*
X99197588Y-87540269D01*
X99371641Y-87306920D01*
X99496825Y-87044099D01*
X99541476Y-86896890D01*
X99420155Y-86667000D01*
X98227000Y-86667000D01*
X98227000Y-86687000D01*
X97973000Y-86687000D01*
X97973000Y-86667000D01*
X97953000Y-86667000D01*
X97953000Y-86413000D01*
X97973000Y-86413000D01*
X97973000Y-86393000D01*
X98227000Y-86393000D01*
X98227000Y-86413000D01*
X99420155Y-86413000D01*
X99541476Y-86183110D01*
X99496825Y-86035901D01*
X99448765Y-85935001D01*
X102303247Y-85935001D01*
X102232068Y-86106842D01*
G36*
X110318524Y-81103110D02*
G01*
X110439845Y-81333000D01*
X111633000Y-81333000D01*
X111633000Y-81313000D01*
X111887000Y-81313000D01*
X111887000Y-81333000D01*
X111907000Y-81333000D01*
X111907000Y-81587000D01*
X111887000Y-81587000D01*
X111887000Y-81607000D01*
X111633000Y-81607000D01*
X111633000Y-81587000D01*
X110439845Y-81587000D01*
X110318524Y-81816890D01*
X110336150Y-81875001D01*
X107689803Y-81875001D01*
X107641210Y-81826408D01*
X107685000Y-81606260D01*
X107685000Y-81313740D01*
X107631544Y-81044999D01*
X110336150Y-81044999D01*
X110318524Y-81103110D01*
G37*
X110318524Y-81103110D02*
X110439845Y-81333000D01*
X111633000Y-81333000D01*
X111633000Y-81313000D01*
X111887000Y-81313000D01*
X111887000Y-81333000D01*
X111907000Y-81333000D01*
X111907000Y-81587000D01*
X111887000Y-81587000D01*
X111887000Y-81607000D01*
X111633000Y-81607000D01*
X111633000Y-81587000D01*
X110439845Y-81587000D01*
X110318524Y-81816890D01*
X110336150Y-81875001D01*
X107689803Y-81875001D01*
X107641210Y-81826408D01*
X107685000Y-81606260D01*
X107685000Y-81313740D01*
X107631544Y-81044999D01*
X110336150Y-81044999D01*
X110318524Y-81103110D01*
G36*
X105046525Y-79866632D02*
G01*
X105253368Y-80073475D01*
X105427760Y-80190000D01*
X105253368Y-80306525D01*
X105046525Y-80513368D01*
X104928900Y-80689406D01*
X104757588Y-80459731D01*
X104541355Y-80264822D01*
X104424466Y-80195195D01*
X104606632Y-80073475D01*
X104813475Y-79866632D01*
X104930000Y-79692240D01*
X105046525Y-79866632D01*
G37*
X105046525Y-79866632D02*
X105253368Y-80073475D01*
X105427760Y-80190000D01*
X105253368Y-80306525D01*
X105046525Y-80513368D01*
X104928900Y-80689406D01*
X104757588Y-80459731D01*
X104541355Y-80264822D01*
X104424466Y-80195195D01*
X104606632Y-80073475D01*
X104813475Y-79866632D01*
X104930000Y-79692240D01*
X105046525Y-79866632D01*
G36*
X113202412Y-77380269D02*
G01*
X113418645Y-77575178D01*
X113535534Y-77644805D01*
X113353368Y-77766525D01*
X113146525Y-77973368D01*
X113030000Y-78147760D01*
X112913475Y-77973368D01*
X112706632Y-77766525D01*
X112532240Y-77650000D01*
X112706632Y-77533475D01*
X112913475Y-77326632D01*
X113031100Y-77150594D01*
X113202412Y-77380269D01*
G37*
X113202412Y-77380269D02*
X113418645Y-77575178D01*
X113535534Y-77644805D01*
X113353368Y-77766525D01*
X113146525Y-77973368D01*
X113030000Y-78147760D01*
X112913475Y-77973368D01*
X112706632Y-77766525D01*
X112532240Y-77650000D01*
X112706632Y-77533475D01*
X112913475Y-77326632D01*
X113031100Y-77150594D01*
X113202412Y-77380269D01*
G36*
X106327000Y-76253000D02*
G01*
X106347000Y-76253000D01*
X106347000Y-76507000D01*
X106327000Y-76507000D01*
X106327000Y-76527000D01*
X106073000Y-76527000D01*
X106073000Y-76507000D01*
X106053000Y-76507000D01*
X106053000Y-76253000D01*
X106073000Y-76253000D01*
X106073000Y-76233000D01*
X106327000Y-76233000D01*
X106327000Y-76253000D01*
G37*
X106327000Y-76253000D02*
X106347000Y-76253000D01*
X106347000Y-76507000D01*
X106327000Y-76507000D01*
X106327000Y-76527000D01*
X106073000Y-76527000D01*
X106073000Y-76507000D01*
X106053000Y-76507000D01*
X106053000Y-76253000D01*
X106073000Y-76253000D01*
X106073000Y-76233000D01*
X106327000Y-76233000D01*
X106327000Y-76253000D01*
%TD*%
M02*
